<svg xmlns="http://www.w3.org/2000/svg" xmlns:xlink="http://www.w3.org/1999/xlink" viewBox="0 0 1080 1080"><defs><style>.cls-1{fill:url(#linear-gradient);}.cls-2,.cls-4,.cls-6,.cls-7{fill:none;stroke-linecap:round;stroke-linejoin:round;}.cls-2,.cls-4,.cls-6{stroke-width:40px;}.cls-2{stroke:url(#linear-gradient-2);}.cls-3{mask:url(#mask);}.cls-4{stroke:#78a1bb;}.cls-5{mask:url(#mask-2);}.cls-6{stroke:#8b786d;}.cls-7{stroke:#c6d8d3;stroke-width:35.03px;}</style><linearGradient id="linear-gradient" x1="72.86" y1="53.86" x2="583.14" y2="564.14" gradientTransform="translate(1090 1082) rotate(180)" gradientUnits="userSpaceOnUse"><stop offset="0" stop-color="#fff"/><stop offset="0.08" stop-color="#fafafa"/><stop offset="0.17" stop-color="#ececec"/><stop offset="0.26" stop-color="#d4d4d4"/><stop offset="0.37" stop-color="#b3b3b3"/><stop offset="0.47" stop-color="#888"/><stop offset="0.58" stop-color="#545454"/><stop offset="0.69" stop-color="#181818"/><stop offset="0.73"/></linearGradient><linearGradient id="linear-gradient-2" x1="72.86" y1="53.86" x2="583.14" y2="564.14" gradientTransform="matrix(1, 0, 0, 1, 0, 0)" xlink:href="#linear-gradient"/><mask id="mask" x="28" y="57" width="1004" height="968" maskUnits="userSpaceOnUse"><path class="cls-1" d="M1012,57a20,20,0,0,1,20,20v928a20,20,0,0,1-20,20H48a20,20,0,0,1,0-40H992V77A20,20,0,0,1,1012,57Z"/></mask><mask id="mask-2" x="58" y="57" width="1004" height="968" maskUnits="userSpaceOnUse"><polyline class="cls-2" points="1042 77 78 77 78 1005"/></mask></defs><title>Coast</title><g id="Layer_2" data-name="Layer 2"><g class="cls-3"><polyline class="cls-4" points="128 1005 1012 1005 1012 157"/></g><g class="cls-5"><polyline class="cls-6" points="962 77 78 77 78 925"/></g></g><g id="Coast"><path class="cls-7" d="M903.58,178.53c-17,12.56-260.91,162.06-260.91,162.06s-113.94,69-187.09,132c-64.95,66.07-117.19,138.1-166,217.62-37.18,63.32-82.34,145.92-113.2,211.11"/></g></svg>