<svg id="Layer_1" data-name="Layer 1" xmlns="http://www.w3.org/2000/svg" viewBox="0 0 1080 1080"><defs><style>.cls-1{fill:#283044;}</style></defs><title>Map_dark</title><path class="cls-1" d="M584.54,250a10.31,10.31,0,0,0,0,2.46,47.15,47.15,0,0,0,5.28.07c.29-.29.57-.56,1-1h4.67l1.84-1.84v-2.31l1.19-1.27v-1.88c.93-1.78,1.68-3.21,2.52-4.83l-2.48-2h-3l-1.35-1.2h-3.32l-1.14-.92L588,236.78v4.28a17.44,17.44,0,0,0-1.11,2.37c-.19.69.22,1.54-.55,2.1-1,.69-.43,1.76-.68,2.63C585.43,248.83,584.73,249.35,584.54,250Z"/><path class="cls-1" d="M660.86,169.74h-1.12l-11.23-11.23-3.18-1.57h-1.89c-1.33.81-1.68,2.34-2.5,3.55a23.06,23.06,0,0,1-2.85,2.92,30.29,30.29,0,0,0-2.45,2.49c-.78,1-1.28,2.23-2.1,3.19-1.84,2.13-4,3.92-5.45,6.48-1.2,2.11-3.82,3.43-5,5.56-1.24,2.29-3.38,3.56-4.75,5.62.73.84,1.81.25,2.66.54a14.16,14.16,0,0,1,2.46,1.44c1.34-2.27,3.53-2.87,5.52-3.83s4.17-2.18,6.58-3.45h8c2.44,2.48,4.94,5.19,7.63,7.71,1.83,1.71,2.73,3.88,3.68,6.07,2.67-1,2.79-4.24,5.07-5.72l1.66.5v6.37l2.37.27,2.23,1.62-1.42,1.42c-1.23.77-2.17.08-3.13.73-2.41,1.65-5.51,2.29-7.22,5.16v2.12l-1,1v4.93l.84.85c.13,1.08.66,2.19-.42,3.16-.83.74-.48,2.24-1.67,2.8-1.36.65-1.07,2.3-2,3.27s-2.47,1.77-2.74,3.52c-.21,1.35-2,1.67-2.34,3.1s-1.6,2.55-1.16,4.2c0,.09-.31.24-.39.41a56.38,56.38,0,0,0-3.07,6.3c-.47,1.43-2.63,1.77-2.37,3.71,0,.24-.44.63-.76.82-1.23.75-1.19,2.35-2.09,3.2a9.39,9.39,0,0,0-2.41,3.69,8.52,8.52,0,0,1-2.49,3.65c-.57.49-1.46,1.11-1.47,1.68,0,1.7-1.9,2-2.16,3.2a6.11,6.11,0,0,1-2.6,3.57c-1.19.88-1,2.39-2,3.31a9.8,9.8,0,0,0-3,4c-.59,1.67-3.14,2.24-3.19,4.51-2.82,2.06-3.88,5.6-6.58,7.78a21.42,21.42,0,0,0-2.48,2.47c-.87,1-2.14,1.64-2.55,3a12.93,12.93,0,0,0,3,6c1.15-.35,2.5.31,3.77-.39l.83-.83h3.5c.82-1.6,1.66-3.19,2.46-4.8.72-1.45,1.39-2.93,2.07-4.39a11.49,11.49,0,0,1,3-4.27c.06-1,.1-1.79.13-2.38l1.78-1.79c.72-1.49,1.22-2.44,1.63-3.42,1.13-2.66,2.8-5.05,3.74-7.78,1.44-1,1.79-2.9,3-4s1.31-2.65,2.37-3.75,1.8-2.84,3-4c.8-.76.56-1.75,1.16-2.48s1.67-1.39,2.06-2.65,1.86-2,2.14-3.17c.37-1.53,2.15-2,2.3-3.11.22-1.6,1.39-2.2,2.18-3.21a8,8,0,0,0,1.42-1.75,12.78,12.78,0,0,1,3.52-5.53c-.62-1.55,1.83-2,1.24-3.57.76-.86,2-1.62,2.17-2.58.3-1.58,1.64-2.06,2.37-3.13-.57-1.53,1.85-2,1.24-3.57,1.69-1.05,2-3.12,3.3-4.47-.3-2.19,2.79-2.6,2.53-4.78a11.11,11.11,0,0,0,2.27-2.56c.73-1.68,1.25-3.41,2.6-4.76s1.83-3.52,2.87-5.23c.66-1.09.9-2.43,2.09-3.21,1-.65.48-2.23,1.65-2.81-.34-1.47,1.61-2.06,1.39-3.53,0-.25.38-.68.68-.84,1.66-.9,1.41-3,2.78-4.12-.17-2.14,2.84-2.56,2.57-4.76,1.13-1.69,2.34-3.35,2.1-5.55,1.86-1.84,1.89-4.8,4.06-6.51a3.84,3.84,0,0,0,1.87-2.73c.13-1.22,2.13-1.6,2.23-3.12.11-1.68,2.55-1.84,2.34-3.7a19.36,19.36,0,0,1,2.7-2.93c.94-.68.5-1.78,1.19-2.46s1.79-1.37,1.84-2.12c.12-1.67,2-2,2.2-3.18.34-1.72,1.62-2.49,2.56-3.63a6.21,6.21,0,0,0,1.26-1.81c.44-1.17,1.91-2,2.14-3.17.32-1.58,1.65-2,2.44-3.22v-9.79a1.88,1.88,0,0,0,0-.58c-.06-.16-.22-.29-.18-.24-1.16-.61-2.11-1.49-3.08-1.52-2-.06-2.16-2.87-4.28-2.46-.22,0-.55-.49-.83-.75-.57-.52-1.08-1.34-1.71-1.46a4.69,4.69,0,0,1-1.95-1c-1.05-.71-2.75.32-3.59-1.25-.1-.19-.7-.16-1.06-.17-.78,0-1.56,0-2.43,0l-1.31-1.13h-2.41c-.82-2.06-3.34-2.07-4.7-3.66-1.49-1.75-4.13-1.55-5.91-3.62-.6.76-1.24,1.46-1.77,2.23-.73,1.05-1.34,2.18-2.09,3.21-.86,1.19-2.57,1.8-2.46,3.65a15.28,15.28,0,0,0-2.82,2.93,13.53,13.53,0,0,1-2.52,3.62,4.11,4.11,0,0,0-1.64,2.24c-.16.81-1.15,1.44-1.66,2.22s-.73,1.68-1.28,2.37c-.85,1.05-2.43,1.83-2.67,3a5.29,5.29,0,0,1-2.3,3.12c-1.15.9-1.07,2.36-2,3.29s-1.89,1.93-2.83,2.9c.2,1.94-1.75,2.37-2.54,3.62a12.7,12.7,0,0,1-2.11,3.17c-1.25,1-1,2.87-2.32,3.69V155l2.87,3.12h1.2c1.67,1.67,3.23,3.42,5,4.94s2.9,3.41,5.11,4.5c2,1,3.46,3,4.61,4l5.82,2.92c1-.3,1.42-1.31,2.57-1.29.94,0,1.47-2,2.88-.76-.31.78-1,1.6-.85,2.32.18,1.36-1,2-1.24,3-1.15,4.29-2.28,6.5-4.43,8.66l-3.27,3.27c-1-.34-2,.31-2.79-.69V173.84Z"/><path class="cls-1" d="M574.39,277.23a1.54,1.54,0,0,0,.13,2.19c1.61,0,3.42.35,5-.08,2.49-.67,4.2,1.71,6.52,1.24,1.12,1.28,2.93,1.43,4.17,2.69a10.89,10.89,0,0,0,3.81,1.94,3.52,3.52,0,0,0,1.52,0c1.94-.83,1.53-3.09,3-4.15a11.82,11.82,0,0,0,3-4c.85-1.46,2.39-2.52,3.62-3.75s2.45-2.49,3.71-3.7,2.54-2.37,3.53-3.28c.4-2.83,2.81-4.45,2.41-7.07,1.13-2.06,2.25-4.13,3.5-6.44V246c-1.66-.47-1-2.58-2.43-3.51a6.94,6.94,0,0,1-2.81-3.86H609.6l-1.4,1.2H606L601.54,249l-5.42,5.42-3.24,1.7h-7.69c-2,1.41-2.34,3.71-3.41,5.59-1.52,2.67-2.54,5.59-4.28,8.13.38,1.44-.59,2.45-1.15,3.6A32.08,32.08,0,0,1,574.39,277.23Z"/><path class="cls-1" d="M715.17,60.42l-3.31,3.66a13.77,13.77,0,0,1-2.3,4.52c-.84,1-2.09,1.89-2.46,3.05-.46,1.45-2.19,1.9-2.33,3.1-.2,1.62-1.83,2.07-2.13,3.22-.42,1.63-2.09,2.39-2.42,3.65A5.7,5.7,0,0,1,698,84.77c-1.25,1-1.27,2.68-2.42,3.7a46.36,46.36,0,0,1-3.35,3.24c-1.48,1.07-1.4,3.05-2.83,4.13a32,32,0,0,0-3.31,3.28c-.1.11-.05.36-.1.82a2.25,2.25,0,0,0,1.64,1.88c1.49.28,2.27,1.28,3.21,2.17s2,1.89,2.88,2.9,2.61,1.3,3.76,2.19c1.76-.92,2.6,1.41,4.19,1.18s2.58,1.27,4,1.57c.88,1.62,3.17-.16,4,1.64a8.37,8.37,0,0,1,2.71.48c.81.43,1.33,1.39,2.49.73l1.55-1.63v-3.44l.89-.89c.65-2.08-.53-4.58,1.39-6.41-.89-1.74,1.37-2.62,1.16-4.18,1.39-1.06,1.42-2.92,2.7-4.19,1.11-1.11,1.64-2.89,3-4,1.52-1.19,1.52-3.48,3.29-4.47.69-2.82,3.29-4.09,5-6.12,2.81-1,4.44-3.46,6.56-5.34h1.12L746,69.5c2.64-.24,3.41-2.89,5.28-4a2.45,2.45,0,0,1,.06-.69c2-4.25,4.25-8.34,6.16-12.62A3.51,3.51,0,0,1,758.73,51a2.9,2.9,0,0,1,1.06-.23c1.49.49.79,2.43,2,3v3.36l-1.2,1.43v2.67c-.65,1.51-1,2.33-1.37,3.21-1.2,1.19-2.43,2.43-3.47,3.47-1.56.69-2.92,1.18-4.17,1.87-1,.57-1.11,1.93-1.74,2.74a46.16,46.16,0,0,1-4.41,4.54,54.53,54.53,0,0,0-8.93,5l-.55.13h3.15c.14-.14.27-.29.41-.42l.86-.75c3.4,0,3.4,0,4,.59-.21.82.34,1.78-.3,2.64-1.77.48-3.23,1.83-5.15,1.6-1.09,3.13-3,5.79-4.19,8.83-.25.64-1.05,1.07-1.54,1.54-1.81-.21-3.57.38-5.08-.43,1.18-2.17,2.34-4.21,3.39-6.32a3.08,3.08,0,0,0,0-1.73c-.05-.31-.38-.57-.58-.85l-1.65,1.65c0,.37,0,.75-.07,1l-4.25,4.25c-.69,1.59-1.19,2.74-1.73,4l1.67,1.87c3.76,0,3.76,0,4.38.67-.11.48-.22,1-.33,1.51-1.08.12-2.39-.09-2.79.38-3.26,3.86-4.46,8.77-7.12,12.88a1.74,1.74,0,0,0-.3,1,3.33,3.33,0,0,0,.49,1l1.25-1.13h4.66a18.57,18.57,0,0,1,1.23-2.39c1.19-1.7,3.27-2.61,4-4.75s3.23-3,3.9-5.4c.32-1.15,2.2-1.8,2.68-3A7.66,7.66,0,0,1,739.55,97c1.23-.86,1-2.39,2-3.3s2.34-1.81,2.64-3a5.31,5.31,0,0,1,1.94-2.69,12.24,12.24,0,0,0,2.09-3.23c.93-1.58,3.06-2.34,3.24-4.5l4.54-4.5v-1.4c1.54-.74,2-2.46,3-3.81a33.14,33.14,0,0,1,4-4.08,3.64,3.64,0,0,1,0-.68c.46-2.15,3.35-2.59,3.49-5L770,57V56c1.11-1.11,2.3-2.14,3.29-3.33s1.82-2.8,3-4A15.32,15.32,0,0,0,778.75,45c.67-1.34,2.55-1.87,2.88-3.47s1.86-2.39,2.88-3.46a35.06,35.06,0,0,0,2.5-3.63c1.41-1.84,3.75-3.09,4.75-5.07,1.18-2.33,3.06-3.82,4.69-5.62s3.28-3.31,4.93-5l5-4.95,4.95-4.95,5.36-5.36c1.19-1.19,2.47-2.31,3.63-3.53H757.09c-.76,1.09-1,2.49-2.06,3.25-1.33,1-1.13,2.8-2.46,3.68.39,2.09-2.21,2.42-2.48,4.24-.12.8-1,1.55-1.66,2.2-.82.81-.46,2.25-1.63,2.83.08,1.57-1.23,2.24-2,3.25a4.83,4.83,0,0,0-.55,1.49l3.49,1.81h3l1.25,1.15a5.52,5.52,0,0,1,3.15.79c2.67,1.11,5.15,2.59,7.73,3.87.25.12.69-.15,1.25-.29.07-1.24.14-2.55.21-3.86l1.65-1.65c1.11,1.29,2.86,1.57,4.15,2.75a6.11,6.11,0,0,0,5.21,1.87c1-1.73,3.12-2.18,4.74-3.41l1.1,2.25a35,35,0,0,0,3.78-3.86c1.19-1.63,3.24-1.82,4.54-3.24,2.1-2.29,4.47-4.34,6.55-6.65s5.4-3.37,7.41-6.39L803.91,8l-2.41,2.53c0,.44,0,.82-.08,1.19-1.23,1.24-2.55,2.41-3.69,3.73s-1.61,3.42-3.32,4.45c-.31.18-.64.33-1,.5h-1.76c-.56.9-1.07,1.85-1.69,2.72-.75,1.08-2.21,1.62-2.49,3.06-.33,1.7-2,2.22-2.84,3.49-.29.44-.39,1-.68,1.46-.42.62-.82,1.52-1.42,1.7-3.28,1-5.8,3.84-9.47,3.95-.45,0-.88.67-1.35,1.05l-1.21-1.11h-1.92a98.12,98.12,0,0,0-9-4.59c-4.35-1.7-4.42-1.51-6.74-3.61h-2.22c-1.93-2.51-5-3-7.29-4.62h-1.91c-1.75.78-1.51,3-2.93,4-1.07.72-1,2-1.65,2.82s-1.94,1.53-2.39,2.53c-.79,1.73-2.62,3.26-1.44,5.78,2.73.13,5.61,0,8.44.07.82,1.65,2.42.87,3.58,1.31,1.11,1.12,2.21,2.22,3.32,3.32h1.34c.88,1.94,3,2.33,4.7,3.31.13-.14.37-.28.37-.42,0-2.33,0-4.66,0-6.55l1.68-3.26,1.17-.07q.62.55,1.26,1.17H769.5c.48.93,1.56,1.35,1.8,2.75.19,1.09,1.55,2,2.28,2.83-.33,1.55-1.78,2-2.11,3s-1.25,1.89-1.41,2.91a3.38,3.38,0,0,1-1.85,2.35c-2.05-1.29-3-3.38-4-5.35-.39-.76.2-1.82-.61-2.68a8,8,0,0,1-1.15-2.18c-1.71,0-3.25,0-4.79,0-.14,0-.28.25-.45.43v6.91c-1.12,1.07-2,2.4-3.19,3.05H751.9c-1.06-2.07-3.77-2.17-5.17-4s-4.05-2.07-5.19-4.14h-8.27L732,44.94h-3.35l-10,9.91a3,3,0,0,1,0,.6C718.19,57.59,715.31,58,715.17,60.42Z"/><path class="cls-1" d="M581.9,234.55c.55,2.16-.2,3.59,1,5.63C583.37,236.27,583.37,236.27,581.9,234.55Z"/><path class="cls-1" d="M295.31,754.77l-1.82-.72c-.58,1.08-2.12,1.45-1.82,3.11.67.49,1,1.41,2,1.55.72-.83.19-1.81.39-2.78Z"/><path class="cls-1" d="M547.41,319.46c-1,1.28-1.78,2.86-3,4-.8.76-.54,1.75-1.15,2.47s-2,1.3-2,2.67c-1.81,1.88-2.51,4.58-4.63,6.23.12.91-.39,1.9.44,2.87a3.83,3.83,0,0,0,1.46-.15,9.23,9.23,0,0,0,3.16-2.07c.91-1.19,2.55-.84,3.28-2s2.3-1.21,3.2-2.08,1.8-.4,2.67-.65a7.49,7.49,0,0,0,1.83-1.13h10.18c.63-.63,1.31-1,1.41-1.46.36-1.84,1.75-2.84,2.93-4s1.26-3.15,2.86-4.06a15.82,15.82,0,0,0,3.2-2.07c3.07-2.93,6-6,8.95-8.9V296.23l2.18-2.18a39.92,39.92,0,0,0,0-4.78c-.55-.54-.82-.82-.77-.77-.69-1.2.15-2.26-.8-3.14h-3.73L578,286.49h-6.66c-3.65,2.24-4.64,6.11-7.53,8.35a5.46,5.46,0,0,1-2,3.24,1.37,1.37,0,0,0-.58.9c0,1.64-2.07,2-2.2,3.14-.2,1.83-2.17,2.33-2.39,3.67-.26,1.6-1.48,2.14-2.24,3.17-.44.6-1.29,1.17-1.3,1.76,0,1.94-2.91,2.14-2.4,4.27C549,316,548.58,318,547.41,319.46Z"/><path class="cls-1" d="M292.84,782.84c1.4.84,1.18,2.24,1.21,3.55,1.19.91,1.91,2.39,3.88,3.2,1.33-2,.31-4,.95-5.8l.82-.82V780.3c-1.28-.55-2.4-1.37-3.58-1.47-1.44-.12-3-.53-4.34.34C290.79,780.88,293.66,781.27,292.84,782.84Z"/><path class="cls-1" d="M432.22,613.05l-2.89,3.21c0,2,0,4.27,0,6.58,0,.16.18.31.38.6h4.06c.46-2.14,3-1.85,4.24-3.27,1.43-1.58,3-3,4.43-4.46l3-1.32h4.42l.91.91,2.31-1.3.55.65,3.28-4h5.78l1.67-1.76v-2.2l1.2-1.43v-3c.89-1.68,1.57-3,2.24-4.24-.75-1.71,1.46-2.6,1.17-4.18,2-.75.69-2.78,1.58-4s1.86-2.6,1.78-3.85c-.1-1.72,1.5-2.49,1.46-4.19,0-1.45,1.25-2.92,2.17-4.84v-2.62c.48-.89.84-1.52,1.17-2.17a14.22,14.22,0,0,1,1.75-3.33c1.14-1.19-.19-3.21,1.6-4-.34-1.47,1.62-2.07,1.32-3.53,1.32-.89,1.2-2.63,2.25-3.78.59-.65-.12-2.08.9-3.12A5.42,5.42,0,0,0,486.4,551c0-1.31,1.15-2,1.19-3,.05-1.24,1.71-1.69,1.24-3s1.2-1.85,1.17-3,1.62-1.67,1.22-3a7.89,7.89,0,0,0,2.21-4.32c.7-2.7,2.31-4.89,3.57-7.81V525l1.12-1.2c.25-1-.26-1.92.48-2.83a9.51,9.51,0,0,0,1.83-3.3c.3-1.06-.13-2.33,1.09-3.06-.35-1.47,1.72-2.1,1.29-3.53s1.28-1.85,1.17-3c-.09-1,1.15-1.19,1.13-1.85-.05-1.4.7-2.45,1.07-3.64a25.79,25.79,0,0,0,1.18-3.58,16.77,16.77,0,0,1,1.27-3.59c.51-1.34,1.86-2.48,1.2-4.16,1.28-.71,1.05-2.3,1.93-3.31a23.24,23.24,0,0,0,1.51-2.86c.45-.71-.31-1.9.61-2.65,1.1-.9.44-2.16.62-3.24.06-.36,0-.91.23-1,1.22-.81.59-2.16,1-3.09a9,9,0,0,1,1.5-2.84c.91-.86.47-2.2,1.55-2.93s0-2.11.79-3.16a7.77,7.77,0,0,0,1.81-3.86c.15-1.72,2-2.87,1.33-4.78-.1-.29.65-.86,1.07-1.38v-2.2l1.2-1.28v-2.29l.87-.93c.6-1.24.08-2.14.73-3.11,1.6-2.4,2.44-5.24,4.17-7.58-.38-1.33,1.45-1.86,1.19-3-.39-1.7,1.44-2.6,1.29-4.15,1.91-.89.25-3.46,2.06-4.4-.19-1.57,1.94-2.39,1.36-4.1.85-1.38,1.06-3.11,2.32-4.29.09-.09,0-.38,0-.57a3,3,0,0,1,1.17-3c-.28-1.45,1.08-1.89,1.73-2.78.21-.29.4-.61.57-.86,0-.8.08-1.55.11-2.15l2.2-2.2a6.25,6.25,0,0,1,.78-3.18c.58-1.5,1.58-2.78,1.74-4.57.13-1.49,1.43-2.86,2.19-4.3.08-.15,0-.39,0-.57a11.73,11.73,0,0,1,3.5-6.15v-2.31c1-2.52,3.31-4.45,3.43-7.31.06-1.25,1.67-1.7,1.22-3s1.08-1.88,1.18-3c.13-1.51,2.12-1.9,2.23-3.13.13-1.41,1.41-2.08,1.55-3.5a5.14,5.14,0,0,1,2-3.17c1.19-.91,1-2.38,2-3.34.73-.75.65-2.06,1.67-2.8,1.41-1,1.53-2.85,2.26-4.29.86-1.69,2.87-2.46,3.51-4.38.56-1.72,2.71-2.41,3.2-3.91.66-2,2.62-2.83,3.32-4.47a11.18,11.18,0,0,1,3.43-4.38c1.69-1.35,1.91-3.63,3.64-5a21.52,21.52,0,0,0,4.49-4.55c.84-1.19,1.38-2.6,2.54-3.6.23-.21.17-.71.37-1,.75-1.06,2-2,2.22-3.14.31-1.59,1.64-2.06,2.4-3.17V310.5c.66-1.22,2-1.69,2.44-3.16s1.61-2.52,1-4l-1.6-1.78h-2c-1,.51-1.69.8-2.31,1.16-2.36,1.35-5.22,2.16-5.84,5.39-2.22,1.81-3,4.74-5.31,6.57a64.09,64.09,0,0,0-5.8,5.74,4.06,4.06,0,0,0-.5,1.23l2.35,2.73v3.29l-1.63,1.9H577c-1.09,1-2.08,2-3,2.88v1c-1.45,1.53-2.78,2.93-4.07,4.31H556.67c-.15,1.67-.57,3.39-3.28,3.49l-1.78-2.6-1.55,1.41h-3.47a13.56,13.56,0,0,0-4.69,3.46l-2.41.12c-2.36,2.75-5.71,3.48-8.54,5.06l-.32,1.49c-1.48,1.48-2.86,2.85-4,4-1.12,2.36-2.13,4.46-3.17,6.67l-6.52,6.51c0,.38.08.86-.11,1.12A37.31,37.31,0,0,0,514,373.8c-1,1.92-2.18,3.76-3,5.76-.74,1.84-1.91,3.44-2.47,5.4s-2.7,4.89-4.06,5.17c-2,.4-2.64,2.11-4,3,.37,1.48-1,1.91-1.63,2.83s-1.24,2.21-1.88,3.37c-.16,1.39.49,2.93-1,4.23-.75.67.35,2.28-.87,3.1s.18,2.29-.83,3.15l-.82.83v3.07l-7,13.7v5.37l-1.2,1.3v2.79c-.59,1.42-.75,2.43-1.33,3s-.77,1.67-1.23,2.42-1.7,1.31-1.92,2.12a4.11,4.11,0,0,1-1.33,2.36v3.48l-1.2,1.3v8.11c-1.2.85-3,.86-3.19,1.63-.2,3-1.69,4.71-1.76,6.77,0,.28-.51.55-.81.85v3.44l-1.2,1.29V476l-1.13,1.22a7.75,7.75,0,0,1-.17,2.36c-.25.65-1.13,1-1,1.9.06.73.25,1.58-.54,2.1-1.35.88.06,2.6-1.21,3.61s-.34,2.54-.58,3.91l-1.12,1.27v2.23l-1.2,1.29v2.34c-.82.57-1,1.46-1.34,2.34s-1.51,1.64-2.36,2.48a2.5,2.5,0,0,1-1.05,3.32v8.29l-2.26,2.19c.44,1.23-.71,1.67-1.11,2.38v7l4.65,4.65c-.07.47-.16,1-.25,1.61h-3.12a3.22,3.22,0,0,0-2.66-3.43l-2.27,1.65c.42,1.9-.5,2.92-1.06,4.07v3L450.36,539v2.23l-1.21,1.3v2.27l-1.2,1.31v2.19l-1.12,1.31c0,1.07.06,2,0,3s-1.37,1.27-1.18,2.44a13.17,13.17,0,0,1,0,2.41L444.52,559c-.13,1.36.25,2.53-.32,3.61l-.85.85v3.44l-1.2,1.3v2.26L441,571.8v4.52l-1,1.22V580l4.69,2.17L443,583.86l-2,.09-4.86,4.82v4l-1.14,1.15v4.67l-1.05,1v6.94L432.75,608c.42.79-.41,1.85.74,2.84h4.73c.65.93.59,1.59-.09,2.24Zm89-243.7.36,1.9-2.18.41c-.15-.77-.25-1.29-.44-2.31Z"/><path class="cls-1" d="M304.21,675.66c.93-.7-.23-2.54,1.2-3.55.48-.34.22-1.72.23-1.81l-2.82-3.62-3,3c0,3.75,0,7.41,0,11.06a3.29,3.29,0,0,0,.38,1c.59.25.69,1.28,1.59,1.1.86-1.07-.24-2.61,1.19-3.65C304,678.49,302.81,676.71,304.21,675.66Z"/><path class="cls-1" d="M735.48,83.31c.22-.27.43-.53-.16-.86C735.11,82.59,735.1,82.82,735.48,83.31Z"/><path class="cls-1" d="M599.6,210.28c-2.82,2-2.91,5.1-4.6,7v2l-1.17,1.25v4.62c-.39.41-.78.83-1.28,1.38.53,1.13-.43,2.55.58,3.78h7.24l1.12-1.13h8.13c1.3-1.42,3.51-1.2,4.14-3.47v-6.1l1.28-2.24c-2.73-3.69-7.57-2.89-10.32-5.61h-3.13Z"/><path class="cls-1" d="M590.61,299.25c.77,0,1.67.27,2.22-.05,1.52-.89,3.51-1.14,4.4-3a43.56,43.56,0,0,1-4.8-2.48,1.46,1.46,0,0,0-2.15.28C590.58,295.59,590,297.3,590.61,299.25Z"/><path class="cls-1" d="M607.6,199.66c-2,1.61-2.29,4.37-4.54,5.72l.45,1.7h6.4c1,2.29,3.57,2.25,4.86,4a7.66,7.66,0,0,0,2.13,1.83c1.39.84,3,1.13,4.35,2.23.57.48,1.78.21,2.48.27l1,1h2.33c1.08,1.33,3.22,1.18,4,2.87a79,79,0,0,0-4.61,9.12,7.91,7.91,0,0,0,.1,1.52l5.19,2.55,8.69-8.7c.2-.78-.1-1.65.42-2.63,1.34-2.53,3.14-4.89,3.38-7.92,0-.29.52-.55.83-.86v-3.43l1.2-1.29v-2.28l1.19-1.28v-3.44c1.43-1.73,1.48-2,.42-3h-3.52l-1-1h-5.81l-1.28,1.2h-3.44c-.3.3-.53.7-.86.83-1.34.53-3,0-4,1.47h-3.44a19.08,19.08,0,0,1-3-1.19c-.78-.53-1.34-1.47-2.16-1.82-2.13-.89-4.06-2.24-6.14-2.93C611.2,196.14,609.53,198.06,607.6,199.66Z"/><path class="cls-1" d="M689.22,1.05c.46.43.07,1.75.07,2.66-1.65.77-.49,2.5-1.29,3.65l-3.32.55c.8.9,1.39,1.5,1.43,2.6,0,.57,1.09,1,1.53,1.67a12.31,12.31,0,0,1,1,1.94l2.93,1.66H697c1.05,1,2,2,3,2.88v8.19l1.77,1.77c2-.12,4.07.06,5.92-.09,1.16-1.5-.42-2.12-.47-3.24l1.51-.22,3.37,3.38,3.31,3.3c1.2,1.18,1.36,3,2.85,4.1a26.31,26.31,0,0,1,3.29,3.3c.89-1.34,2.72-1.86,2.9-3.55s2.14-2,2.49-3.67c.24-1.14,1.53-2.13,2.51-3,1.15-1,1-2.75,2.39-3.74,1.14-.8,1.07-2.79,2.57-3.58h3.72c.92-2.28,1.78-4.76,3.86-6.45-.52-1.35,1-1.84,1.25-3a10.69,10.69,0,0,1,1.66-3.37c.57-.93,1.79-1.33,1.83-2.77,0-.8,1-1.41,1.21-2.41.35-1.31,2.37-1.82,2.32-3.6H688.6A2.46,2.46,0,0,0,689.22,1.05Z"/><path class="cls-1" d="M542.44,313.69c-1.39-1.6-3.48-2.1-5-3.57-1.29-1.25-3.37-1.68-5.1-2.46-.13.19-.32.34-.32.49,0,2.32,0,4.63,0,6.85l1.13,1.13v3.37c.59.74.93,1.18,1.32,1.66v4l1.62,3.08c.63-.58,1.52-1,1.68-1.65s.24-1.49.94-2c2.3-1.52,2.75-4.52,4.94-6.12-.78-1.57,2-2,1.16-3.58A7.35,7.35,0,0,1,542.44,313.69Z"/><path class="cls-1" d="M768.39,27.23c-.94,1-.9,1.65-.21,2.53l1.63-.26C769.3,28.7,768.85,28,768.39,27.23Z"/><path class="cls-1" d="M719.51,43.75l.35-1.72L718,40.16c-.25.88-1.4,1-1.47,1.91L718,43.75Z"/><path class="cls-1" d="M282.41,635.46c0,.92-.09,1.84-.13,2.72l-1,1.14c0,3.27,0,6.36,0,9.45,0,.13.26.27.4.41l.87.05,2.23-1.59V644c.48-.65.82-1.08.91-1.21v-3.62L283.52,637C283.33,636.44,284,635.44,282.41,635.46Z"/><path class="cls-1" d="M636.64,184.92l-1.51,1.16c-.58,0-1.16,0-1.73,0-1.11.1-1.61,1.61-2.94,1.29-.09,0-.39.27-.38.39.17,1.87-2,2.33-2.3,3.65a15.24,15.24,0,0,1-1.23,2.39c-.17.41.17,1,.27,1.5.54,0,1.12.24,1.25.08,1-1.23,2.89-.87,3.68-2.31h2.31l1.25-1.17h2.14l1.89-1.41,1.92,1.42c.89-.18,1.92.41,2.63-.46-2.13-2.19-4.24-4.37-6.37-6.53C637.42,184.83,637.15,184.92,636.64,184.92Z"/><path class="cls-1" d="M623.7,242.1c.67-1.54,1.22-2.82,1.72-4-.76-.76-1.4-1.84-1.82-1.76-1.41.27-1.81-1.44-3-1.25a4.21,4.21,0,0,0-1,.48v2.58l2.27,1.83v1.79Z"/><path class="cls-1" d="M267.64,1061a3.47,3.47,0,0,0,.69-1.06c.58,0,1.54.21,1.69,0,.76-1.3,2.45-.87,3.31-2,.62-.8,1.29-1.41.28-2.69-1.63.4-3.52-.51-5.28.54a15.76,15.76,0,0,0,.33,4C267.75,1060,266.85,1060,267.64,1061Z"/><path class="cls-1" d="M231.8,980.34c-.14.33-.53.55-.8.83,0,1.54,0,3.08,0,4.62,0,.14.23.28.17.21l6.79-6.79c0-.05.07-1,.11-1.64l1.06-1.05v-2.29l1.18-1.25v-4.25c-.65-1.25-1.14-2.21-1.65-3.18-.83.62-1.74,1.1-1.9,2.41-.12,1-1.24,1.69-1.2,3,0,1-.72,2-1.06,3-.12.35.14.87-.05,1.13A26,26,0,0,0,231.8,980.34Z"/><path class="cls-1" d="M188.32,997l-2.86,5.78v4.07l-.85.86c-.55,8.61-.48,13.29.31,17.4l2.84-3.06c-.56-1.53,1.85-2,1.24-3.57,1.39-.62,1.25-2.22,1.94-3.3a33.9,33.9,0,0,1,2.13-3.18,21.89,21.89,0,0,0,2-3.7c-1.66-1.88-1.88-4.33-3.46-5.84S189.71,998.64,188.32,997Z"/><path class="cls-1" d="M225.49,996c-1.3,1-1.37,2.59-2.39,3.7s-2.45,1.7-2.71,3.54c-.14.93-1.55,1.62-2.24,2.53s-1.34,2.17-2.1,3.18c-.3.4-.91.57-1.37.85-1.38.86-3.07,1.17-4.23,2.44a1.44,1.44,0,0,0,0,2.11h4.94c.2-.19.32-.34.47-.46,1.73-1.34,4-1.56,5.65-3.24s2.14-3.8,3.18-5.69c.73-1.31,1.71-2.42,2.43-3.65s1.36-3,2.21-4.28c.75-1.15.49-2.11.33-3.21l-1.55-1.45C226.37,993,226.68,995.07,225.49,996Z"/><path class="cls-1" d="M263.14,849.87a18,18,0,0,1-1.94,1.88,12.41,12.41,0,0,1-2.12,1.07v2.24l1.58,1.83h2.45l1.69-1.69L263.66,854C263.51,852.7,264.07,851.34,263.14,849.87Z"/><path class="cls-1" d="M257.85,1025.45l1.13,1.33c.21,1.56-.64,3.24,1,4.36-.23,2.46,2.35,4.38,1.22,6.91l1.27,1.46v2l6.59,6.6c1.19-1.19-.19-2.93.74-4.25l.85-.84v-4.76c-2-.89-2-3.38-3.6-4.73s-1.53-3.65-2.89-5.12l-2-.13-3.31-3.33Z"/><path class="cls-1" d="M298,877a5.15,5.15,0,0,0,2.8-1.77l3.07-3.07c1.57-.29,3.07.62,4.12-.65.91-1.11,2.51.06,3.11-.85,1-1.51,2.59-.38,3.77-1.31v-3.8c-2-1.82-1.7-4.78-3.33-7.06v-1.81l-2-3.43c-1.17-1.16-2.83-3.53-5.09-4.89-2.51-1.51-4.33-3.61-6.63-5.17l-2.17-1.26c-.58.54-1.15,1.07-1.7,1.56v2.38L292.84,847c-.07,1.26.17,2.32-.88,3.31-.89.84.19,2.56-1.24,3.59-.82.59.17,2.11-.82,3.14a13,13,0,0,0-1.73,3.26v1.82L287,863.41v3.41l-1.2,1.34v4.56l-1.09,1.09v5.69l-1.31,1.68V888l-1.05,1c0,1.45,0,3,0,4.54,0,.15.2.3.3.45,3-.18,8.58-2.6,11.35-5a11.74,11.74,0,0,0-.06-3.29c-.46-1.61,1.69-2.17,1.21-3.61s1.21-1.86,1.18-3A2.26,2.26,0,0,1,298,877Z"/><path class="cls-1" d="M575.06,246.27a9.44,9.44,0,0,0-1.13-.85C574.13,246.16,574,247.07,575.06,246.27Z"/><path class="cls-1" d="M201.14,980.48a3.47,3.47,0,0,0,.69-1.06c.2,0,.43.07.58,0,1.89-1.1,1.78-3.72,3.67-4.86.24-.15.26-.65.42-1,2.3-4.46,4.29-9.07,6.89-13.37.23-.37,0-1-.07-1.6a10.3,10.3,0,0,0-5.65,4.11c.46,2.94-2.8,4.77-2.34,7.71L203,974.5v2l-1.17,1.24a2.58,2.58,0,0,0,.33,1.59C201.25,979.54,200.35,979.46,201.14,980.48Z"/><path class="cls-1" d="M273,2.41c-.84,1.48-2.51,1.54-3.68,2.44-.56.42-1.39.46-2,.87a14.28,14.28,0,0,0-1.65,1.6l-2.35-.9c-.84-.34-1.27-1.42-2.44-1.2-.64.13-.7-1.41-1.77-.75v12c.38.38.65.66,1.14,1.14v7l1,1c.15,4.41,0,8.84.11,13l1.12,1c0,2,0,3.91,0,5.85,0,.14.26.28.48.5l3.16.14,3.26,1.73c.09.93-.11,1.9.28,2.39a3.5,3.5,0,0,1,1,2.55c0,.9-.36,2,.61,2.65,1.14.82,0,2.25.83,3.15.26.29.55.56.69.7.51,1.41-.26,2.81.72,4.31l2.71-2.71,3.16-3.17c1,.93.39,2,.59,2.86l-1.18,1.29v1.66c-1.35,3.39-3.51,5.78-3.76,9.5-1.5-1.08-1.83.63-3.06,1.11-1.43-.56-3.24.55-4.83-.65,0-.77-.33-1.82.05-2.26,1.47-1.71,1.7-4.06,3.2-5.71.21-.24.17-.7.25-1.06-.4-.61-.8-1.22-1.3-2V59.37l-.95-.95c-.07-1.31-.14-2.61-.19-3.69l-1.05-1V51.37c-1-.68-1.44-2.55-3.4-1.39l-.21,3.78-1.06,1.06v22c-.58.76-.92,1.19-1.31,1.69V90.28c-1.69.53-1.78,2.26-2.67,3.4a22.13,22.13,0,0,0-2.45,3.67c-.74,1.48-2.91,2-2.91,4.05-1.34.88-1,2.82-2.37,3.72V108a21.7,21.7,0,0,0-1.11,2.43c-.16.52.1,1.34-.2,1.64-1.55,1.55-1.57,3,0,4.44,0,1.79,1.53,2.5,2.45,3.64v2c-.85,1.51-1.57,2.78-2.25,4v4.4a23.88,23.88,0,0,1,2.09,3.51c.45,1.18-.19,2.73,1.31,3.56v2.29l1.2,1.3v2.27l1.12,1.22v24.51l-1.08,1.08V175l-1.24,1.24v3.5L252,180.83c0,1.82,0,3.75,0,5.68,0,.15.19.3,1,1.48,0,0,.63,1.16,1.35,2.46v3.9l-3.49,3.46v2.72l-1.07,1.26c-.07.86-.16,1.78-.23,2.51l-1,1v3.45l-1.21,1.3v2.25l-1.2,1.33v2.17L245,217.14a22.56,22.56,0,0,1,0,3.6c-.18,1-1.17,2.09-1,3,.23,1.45-1.1,1.94-1.25,2.87-.13,1.29.27,2.46-.33,3.53l-.84.84v3.46l-1.2,1.3V238l-1.08,1.22v3.53l1.08,1.08v30.68l1.47,3.44A5,5,0,0,1,245,280v4.65l-1.18,1.27v4.56c-.43.48-.8.91-.81.91-.84,1.69.66,2,.93,3.41v14.46l.94.94v8.06l-2.2,4.1v1.86c1.67,2.55,5.08,2.35,6.87,4.65.1.91.21,1.83.31,2.64l1.12,1.13v3.5l1,1c0,1.94,0,3.89,0,5.83,0,.14.26.28.39.41,1,.58,2.36-.51,3.09.86,0,.38-.05.76-.07,1.16l-2.28,1.13a3.74,3.74,0,0,0,.18,1.24c.64,1.1,1.47,2.11,2,3.26.29.64-.13,1.66.23,2.22.61,1,1.33,1.78,1.12,3.05s1.67,1.66,1.16,3c1.42.85,1.16,2.27,1.24,3.57l6.19,6.19.86.12,8,8v4.46c-1.08.73-1.69,1.59-.53,2.75.91.22,1.94-.4,2.72.38-.44,1-.62,2.2-1.33,2.8-1.94,1.66-2.26,4.21-3.71,6.06-.88,1.13-.52,2.11-.43,3.09l1.13,1.45v3.27l1.16,1.16v4.67l1,1v3.48l1.2,1.29v4.56l1.2,1.36v3.38l.89.89c.17,1.08.72,2.22-.38,3.13h-2.3l-1.32-1.21H269c-.72-.26-.92-1.57-1.84-.55v5.85a18.17,18.17,0,0,0,4.4,3.41c1.64.83,2.8,2.63,4.18,4s3.25,2.53,4,4.19a12.91,12.91,0,0,0,3.35,4.17,11,11,0,0,0,5.66-2.35h2c1.85,1.32,3.62,2.39,5.15,3.72s3,3.05,4.28,4.43l1.29.07,9.75,9.64a18.78,18.78,0,0,0,3.13,5.54c1.22,1.51,1.88,3.48,3,5.7.28.75-.52,2.15.23,3.24l.91,1v6.88l1.16,1.31c.34,2.19-1.67,3.78-1.39,5.9-1.29,1.36-1.57,3.26-2.51,4.79-1,1.71-1.73,3.57-2.8,5.27a42.32,42.32,0,0,0-2.41,5.15c2.24,2.95,2.59,7,5.64,9.15-.36,1.68.52,2.72,1.26,4.13v3l1.17,1.18v5.89l1,.93v31.5l-1.2,1.31v4.59l-1.07,1.07V574l-1.11,1.1v4.64c1.78,2.55,2.27,5.49,4.51,7.23v3.4c-.44.51-.81.94-1,1.22v3.1a22,22,0,0,0,1.76,3.31,23.25,23.25,0,0,0,2.47,2.42c.41,1.07.57,1.59.81,2.07s.56.92.93,1.5a4.59,4.59,0,0,0-1.46,3c0,1-1.14,2.08-1,3,.22,1.45-1.09,2-1.27,3v3l-1.15,1.26v2.27c-.41.43-.8.86-1.16,1.25v8.12l1.09,1.21v16.41c-2,.88-.21,3.51-2.12,4.4-.05.95-.11,1.9-.16,2.85a2.25,2.25,0,0,0,0,.58,2.39,2.39,0,0,0,.24.48l.83.83c.07.92.14,1.84.2,2.53l1,1v2.3l1.21,1.29v2.31a2.25,2.25,0,0,1,1.13,2.44c-.28,1.16,1,1.56,1.14,2.44.13,1.13,0,2.17,1,3.15.51.51.29,1.76.39,2.58l6.47,6.47c.51,1.08.9,1.89,1.49,3.16v2.94l1.2,1.28v2.29l1.17,1.25v13.46a1.27,1.27,0,0,0,.08.55,3.27,3.27,0,0,0,.5.51c1.64,0,3.38,0,5.11,0a4.08,4.08,0,0,0,1-.3l.84-.84h4.62l1.3-1.2h4.58l1.34-1.2h5.66l1.33-1.11a14,14,0,0,1,2.43,0c1.17.22,1.51-1.14,2.44-1.17a5,5,0,0,0,3.13-1c.91-.67,2.67.13,3.5-1.34,1.34.48,1.85-1.47,3-1.15,1.57.45,2.3-1.08,3.61-1.26.65-.09,1.2-1,1.86-1.06,1.11-.18,2.34.16,3.07-1.07,1.47.34,2.11-1.71,3.53-1.29s1.87-1.13,3-1.22,2.14-1.18,3.59-1.29,2.58-1.3,4.14-1.14l3.3-3.31,1.16-.07,1.95-3.5V679c.5-.68.82-1.12,1.05-1.42v-3.19l1.15-1.27v-3.42l1.2-1.31v-4.57l1.15-1.28c0-.43.07-1-.14-1.16-1.26-1.24-1.73-2.54-.42-4,.75-.84.47-2.25,1.63-2.83a2.72,2.72,0,0,1,1.24-2.4c-.48-1.35,1.28-1.8,1.19-3-.15-2.21,1.45-3.68,2.42-5.64V636.9l1.13-1.12v-4.67l1.24-1.23v-4.67l1-1v-4.64l1.21-1.28v-1.8a18,18,0,0,0,1.11-2.39c.18-.7-.22-1.56.57-2.1s.6-1.32.63-2.07a5.58,5.58,0,0,1,.24-2.23c.34-.64,1-1.06.93-2a17.47,17.47,0,0,1,0-2l4.54-8.91c-1.06-.43-.94-1.4-1.09-2.37a11.79,11.79,0,0,0-1.14-3c-.38-.8-.9-1.54-1.32-2.24a5.68,5.68,0,0,0,.92-1.06c1.53-3.27,3.07-6.52,4.92-9.63a2.56,2.56,0,0,0,.1-2.22,6.75,6.75,0,0,1-1.19-3,7.74,7.74,0,0,0-1.56-3.4,2.46,2.46,0,0,1-.66-2.06c.26-1.09-.79-1.54-1-2.16l1.51-1.83h2.46c.76-1.91,2.89-.52,4-1.68v-4.67L434,554.14v-2.32l2.91-2.9h1.16l1.7-1.7-1.1-1.24V535l10.54-10.54c-.44-1.4.49-3.2-.56-4.75h-2.39l-1.31-1.2H442.7L441,516.8c.56-.53,1.15-1,1.66-1.61,1.24-1.39,2.76-2.43,3.41-4.43.53-1.61,2.76-1.64,4.2-2.8h3.24c.19-1.59,1.5-2.56,1.58-4.16s1.48-2.94,1.32-4.68c1.64-1.13.75-2.82,1-4.36l1.12-1.27v-2.24l1.2-1.28v-2.28l1.2-1.3v-2.21c.44-.5.8-.93,1.21-1.39V472.64l1.63-1.91H465c.51-1,1-2,1.72-3.33,0-1.45,0-3.39,0-5.33,0-.14.23-.29.52-.64l.64-.58V455l1.2-1.31v-5.79c1.57-.82.64-2.58,1.35-3.53a36.67,36.67,0,0,0,2.09-3.83,34.27,34.27,0,0,0,1.56-3.43c1.78-1.79,3.57-3.57,5-5,.6-1.22,1-2,1.59-3.19v-3c.41-.43.79-.86,1.2-1.3V411.85l1.16-1.29c-.33-2.06.85-3.63,1.83-5.1.71-1.07,1.37-2.16,2.07-3.22s.78-2.44,1.92-3.35a6.18,6.18,0,0,0,2-3.19c.39-1.65,1.55-2.53,2.6-3.67v-3.76A39.61,39.61,0,0,1,489.1,384c-1.35-1.73-3.79-1.8-4.93-3.67v-1.75h-7.61c-.51-.54-1-1.1-1.6-1.67.19-.2.4-.63.63-.63,2.31,0,4.62,0,6.87,0,.55.89,1.72,1.18,1.71,2.33h2.53l4.67,4.68a2.52,2.52,0,0,0,2.64-1.11c1.57.68,2-1.93,3.53-1.25l1.23,1.15h2.35c1.26-1.27,2.85-2.32,3.64-3.79s1.83-2.37,2.49-3.63c.91-1.74,1.83-3.5,2.57-5.33a1,1,0,0,0,0-.45c1.11-1.85,3.47-2.62,3.67-5,1.53-1.49,3-3,4.57-4.45-.45-1.28.83-1.7,1-2.54.27-1.06-.31-2.35,1-3.1.95-2.73,2.62-5.12,3.71-7.78.1-.25-.21-.66-.4-1.16l-1.24,1h-5l.54-.69-2.18-.77c.6-.59.87-.87,1.35-1.35v-3.5l1-1c.33-2.06-.14-4.18.25-6.08l1-1v-3.44c1.39-.88,1.08-2.78,2.34-3.74.2-.15.08-.72.11-1.1l4.55-4.56v-1.1l1.2-1.29v-3.44l1.2-1.31V308l1.13-1.31a5,5,0,0,0-.86-3.26c-.68-.86-.34-2.52-.45-3.74l-.9-.91c-.1-.92-.21-1.83-.3-2.67l-1.77-1.63H522.1l-1.53-1.19H515l-1-1c-.66.57-1.22,1.47-2,1.21-1.57.43-1.8,2.28-3.47,2.26a3.28,3.28,0,0,1-2.14-2.34c-.29-1.46-1.73-2-2.47-3.06-.61-.89-1.12-1.84-1.79-3-.95.45-2,1.38-2.88,1.26-1.57-.22-2.26,1.36-3.92,1.25l-1.81-2.24v-3c-.31-.31-.68-.53-.84-.86a20,20,0,0,1-.72-2h-1.28c-1-1.35-3-1.95-2.95-4,0-.15.21-.3.42-.57h3.68l1.46,1.17h5.49l1.41,1.05h3.12c1.58,1.26,3.69,1.78,4.95,3.5,2.24.13,2.78,2.77,4.46,3.27,2.24.67,3.14,2.66,5,3.77h5.62l1.4,1.2h2.22c.62,1,.58,2.27,1.67,2.93v2.27a10.39,10.39,0,0,1,3.71,7.2,12.47,12.47,0,0,0,4.46,3.37,63.2,63.2,0,0,1,5.7,2.81h5.36c.82-.82,1.71-1.6,2.45-2.49s.68-2,1.62-2.85a8.08,8.08,0,0,0,2-3.19,8.35,8.35,0,0,1,1.67-2.83,23.68,23.68,0,0,0,2.09-3.19c-.63-1.55,1.86-2,1.24-3.57.76-1.24,1.6-2.44,2.26-3.72.58-1.11.76-2.48,1.51-3.43a5.47,5.47,0,0,0,.91-2.57,20.27,20.27,0,0,1,1.69-3.73c.88-.85,2.42-2.33,3.91-3.85a7.62,7.62,0,0,0,1.32-1.78c1.9-3.68,3.54-7.49,5.63-11.08a2.53,2.53,0,0,0-.9-3.56l1.09-1.24c-.09-1.27.42-2.63-.33-3.87-1.65-.83-2.83.28-4.11,1h-3.55c-.71-.82-1.68-2-2.73-3.15a2.25,2.25,0,0,1-.77-2.49c1.06-1,2.46-2.31,3.88-3.62.12-.1.36-.05.92-.12l1.6,1.21a15.81,15.81,0,0,0,2.72-.16,8.82,8.82,0,0,0,.07-1.28l-2.41-4.22v-7.34c-1.69-3.38-3.24-6.24-4.52-9.22a4.72,4.72,0,0,0-1.35-1.74c-.53-.45-1.38-.48-2-.89-.77-.56-1.3-1.63-2.12-1.91a25.46,25.46,0,0,1-4.86-2.38c-1.39-.84-3.16-1-4.3-2.28-2.24.41-2.57-2.89-4.81-2.48-.58-.84-1.57-.89-2.36-1.31-1-.52-1.6-1.71-2.54-2.37-1.19-.83-1.07-2.46-2.07-3.21-1.3-1-1.57-2.52-2.48-3.67-.34-.43-.51-.57.14-.93h4.37l4.27,2.23h1.85l1.26,1.17h4.16l10.62,10.62h3.94a14.58,14.58,0,0,1,3.51,4.56c1.21,2.77,1.38,2.7,4,4.08l3.36,1.73h3l1.35,1.24a11,11,0,0,1,.73-2c.56-1,1.76-1.39,2.12-2.63a8.79,8.79,0,0,1,1.63-3.38c.79-.88.4-2.29,1.58-2.87s1.28-2.2,2-3.25a38.78,38.78,0,0,0,2.47-4.8c.6-1.15.92-2.43,2.09-3.22,1-.67.48-2.23,1.66-2.81-.34-1.47,1.62-2.07,1.33-3.53,1.53-1.17,2.09-3,3.22-4.5a4.57,4.57,0,0,1,1.65-1.6,27.33,27.33,0,0,0,3.89-1.83c1.38-.81,3.32-1,4.07-2.85,0-.32,0-.7.07-1.31l6.92-6.73c0-.46.06-.84.08-1.25l5.77-5.74v-1.16l5.8-5.81v-1l7-7v-1.44a18.43,18.43,0,0,0,2.82-2.77c.82-1.22,1.29-2.63,2.5-3.63.84-.7.49-2.23,1.67-2.79,1.36-.65,1.27-2.22,2-3.3s1.4-2.13,2.09-3.21c.8-1.24,1.3-2.69,2.56-3.58,1.6-1.14,1.55-3.43,3.27-4.51.37-.24.47-.95.64-1.46.46-1.44,2.56-1.81,2.38-3.7,0-.26.45-.58.71-.85,1.79-1.79,3.46-3.72,5.4-5.32s2.9-3.92,4.52-5.73c1.42-1.59,3-3,4.51-4.48v-1.23c1-1.13,2.45-1.9,2.48-3.65,1.17-.58.8-2,1.63-2.84s1.67-1.35,1.84-2.76c.11-.92,1.49-1.69,2.31-2.51l6.18-6.19c.26-.26.48-.58.77-.94V87.51c.45-.53.81-1,1.2-1.44V83.42c.65-1.51,1-2.34,1.37-3.22l3.67-3.67a35.48,35.48,0,0,0,4.07-4.16c1.09-1.51,3-1.51,4.12-2.84a10.29,10.29,0,0,1,1.23-1.24c.88-.76.55-2.15,1.63-2.86a3.54,3.54,0,0,0,1.44-2.31c.23-1,1.44-1.72,2.21-2.56-.39-2.07,2.61-2.28,2.34-4.29l3.49-3.9V50c-2.1-1.1-2.32-3.75-4.11-5.21-.35-.3-.25-1.1-.57-1.49-1.32-1.55-1.55-3.87-3.43-4.75V35.54L709.44,34c-.19-.84-.27-1.2-.38-1.71-3.2-.46-6.47,0-9.71-.26l-1.67-3.23V25.73l-1.2-1.31V21l-1.7-1.7H692.5l-1.28-1.2H688.8c-1.17-1.85-3.71-2.71-4-5.3-2-1.47-2.51-4.2-4.5-5.75-.23-.18,0-1,.06-1.58,1.94-.56,3.94.32,5.66-.66V1.19L684.89,0H276.28A6.59,6.59,0,0,0,273,2.41ZM551.83,228.69c1.82-.44,3.17-2.53,5.47-1.56.74,1.24.26,2.6.33,3.87l-1.18,1.31v2.43l-1.69.46c-.4-1.8-1.62-2.95-2.93-4.18ZM655.73,92.8c7.64,5.6,8.43,6.32,14.95,13.53-1.22.86-2.61.25-3.71.39-2.78-1.47-3.33-4.62-5.52-6.5s-3.87-3.8-5.78-5.71V93l-1.06-.9C655.52,91.35,655.55,92,655.73,92.8Zm-26.9-12.3,1.67-1.65a7.93,7.93,0,0,1,3.87.18c1.37,1.89-.48,3.16-.92,4.66s-2.67,2.17-2.5,4.13a3.79,3.79,0,0,1-1.19.23c-.33,0-.62-.36-.93-.55Zm-6.93,36.2c.41-.72.66-.68,1-.17,1,1.71,3,2.2,4.6,3a13,13,0,0,1,2.29,1.59c.18.92-.8,1.06-1.14,1.63s-.82,1.23-1.24,1.85L621.79,119C621.84,118,621.88,117.21,621.9,116.7ZM601.22,86.8l1.8,1.69c-.25,1.7.89,3,1.31,4.6,1.92,1.07.3,3.81,2.28,4.85a7.31,7.31,0,0,0,1.18,4.74c1,.95,2,1.85,2.88,2.85.72.81,1.62,1.39,1.94,2.68s1.54,2,2.3,3c-.53,1.13-.53,1.13-1.58,1.44-1.38-.74-2.3-2.15-4-2.78-1.48-.57-2.51-2.32-3.79-3.61v-3.38l-1.19-1.35V99.27L603.17,98V94.55L602,93.29V89.85l-1.24-1.34C600.89,88,601,87.5,601.22,86.8ZM514.9,154.73h4a6.12,6.12,0,0,1,.27,1.51c0,1-1.75,4.07-2.77,5.22-2.08-1-1.89-3.33-3.38-4.66ZM386,160.42h1.89l.78-.81a3.72,3.72,0,0,1,1-.34c1.35,0,2.7,0,4,0,1.08,2,3.79.45,4.89,2.33,2-.35,3.33,1.24,5,1.82v1.12c-.74.75-12.07.9-23.1.33l-.24-1.53ZM344.74,65.8c1,2.1,3.41,2.2,4.83,3.74s3,3,4.51,4.54c1.84.3,2.28-1.7,3.65-2.19.85.79.23,1.83.46,2.8l-1.74,1.59c-2.41.06-2.86-.1-5.87-2.2h-2.32c-1.71-.82-1.49-3.06-2.91-4s-1.08-2.71-2.39-3.77Zm-4,364.69,1.06-1.17v-3.71l1.76-.39c.33.36.58.49.58.63,0,1.55,0,3.1,0,4.52.5.66.93,1.24,1.21,1.59-.07.57,0,.82-.12.92-1.32,1.36-2.67,2.7-4,4-.22-.23-.48-.36-.48-.5C340.74,434.5,340.75,432.57,340.75,430.49Zm-45.44-356V70.7h4.09c1,.24,1.31,2.21,3.18,2.31,1.22.07,1.63,2.12,3.11,2.22,1.69.12,1.92,2.18,3.67,2.47,1.12.18,2.05,1.49,3,2.21a2.4,2.4,0,0,0,2.38-1.54c1.12-2,2-4.21,2.94-6.34a3.13,3.13,0,0,1,3.6.62c.88.84,2.73-.32,3.51,1.28,1.56-.15,2.12,1.13,3.07,1.86-1.8,2.33-4.81,2.31-6.6,4.29s-4.89,1.7-6.25,4.06c.23,1.7,2.17,2.93.93,4.78-.14.08-.36.26-.4.23-1-.91-2-1.84-2.86-2.67V84c-.88-.7-1.4-1.93-3.1-1.68a26.72,26.72,0,0,0-2.22-2.42c-1-.83-1.52-2.09-3.1-2.39-1-.18-1.75-1.36-2.76-2.2-.64-.22-1.19.14-1.83.68s-1.48.41-1.92.89c-1,1.05-2.09.65-3.18.69C293.2,76.29,294.31,75.54,295.31,74.52ZM286,217.16a17.27,17.27,0,0,0,1.84.67c1.1,1.12,2.54,2.42,3.82,3.88s2,3.51,3.68,4.88c1.4,1.17,1.48,3.47,3.36,4.32-.94,2-3.84,1.56-4.52,3.78l1,1v4.66l1.06,1.07v5.66c.49.64.92,1.22,1.21,1.61.08,1.47-1.09,1.77-1.6,2.57h-3.8c-.81-1-.18-1.95-.45-2.76l1.05-1.06V239c-.24-.25-.51-.52-1-1v-3.5l-1.11-1.12v-4.27c-.38-1.07-1.57-1.49-1.26-2.63-2.12-2.22-4.25-4.43-6.23-6.49l-7,3.62c-.84-1.7-1.63-3.26-2.51-5h-5.11c-.05-.93-.1-1.67-.17-2.92l2-.92c.42-1.68.55-2.2.67-2.71,1.1-.59,2.27-.2,3.58-.34.32.25.72.86,1.17.89,2.08.15,3.78,1.19,5.54,2.09C282.81,215.53,284.4,216.37,286,217.16Z"/><path class="cls-1" d="M234.26,421c.57,1.11.88,2.35,1.42,3.48s1.33,2.16,1.87,3.3c1.18,2.51,2.12,5.16,4.71,6.84h3.91c.57,0,1.15,0,.9-.81-.11-.33-.53-.56-.8-.83-.08-.92-.17-1.84-.24-2.57l-1-1v-2.27l-1.2-1.29v-1.91c-.66-1.29-.94-2.52-1.7-3.15-1.26-1.05.13-2.75-1.18-3.63s-.17-2.2-.81-3.14l-4.45-4.44-2.82-4.23-1.86.45c0,1.39.34,2.86-1.13,3.71V413c.34.36,1.14.9,1.06,1.17-.5,1.59,1.89,2.05,1.29,3.58C232.91,418.8,233.68,419.83,234.26,421Z"/><path class="cls-1" d="M194.77,997.3c1.17.92.85,2.55,2,3.29s1.31,2.21,2.07,3.22c.56.74,1.18,1.62,2.43,1.23l14.38-14.42c0-1.71,1.48-2.5,2.49-3.58s2.69-2,3.16-3.35a10.78,10.78,0,0,1,3-4c1.08-1.1,2.3-2.05,3.09-2.75.11-1,.15-1.36.19-1.73l4.54-4.55v-2.32L231,967.08v-8.86l-1.68-3.28h-1.17l-1.24,1.15H219.5c-1,2.36-3,4.35-4.16,6.87-1.7,3.57-3.57,7.07-5.33,10.62-1.38,2.76-2.58,5.63-4.66,8-.21.24-.09.78-.31,1-1.06,1.14-2.18,2.21-3.28,3.31l-1.66,1.67h-.57l-6.71,6.71C193.38,995.2,193.82,996.57,194.77,997.3Z"/><path class="cls-1" d="M286.39,1024a13.81,13.81,0,0,0-1.9.92c-1.2.82-2.78,1-3.76,2.18s-2.77,1.73-4.24,2.43a3.48,3.48,0,0,0-2.13,2l.95,1V1045c.55,1,1,1.73,1.82,3.15l3.47,3.62a2.66,2.66,0,0,1,2.42-1.31c1.3-2,3.85-2.27,5.32-4.08.66-.82,2.14-.55,2.82-1.63.11-.17.73,0,1.09,0l2.91-2.91v-2.32l-1.18-1.26v-10.45Z"/><path class="cls-1" d="M301,520.35v21.57l-4.81,9.7,1.37,1.51v4.53l1.2,1.37v3.37l1.08,1.09v4.67l1.22,1.22V574l1,1c.07,1.3.15,2.6.23,4l3.37-1.42V567l1.15-1.23v-4.62l-1.17-1.28V535.52l-1.18-1.3V522.8l-2.91-3Z"/><path class="cls-1" d="M290.54,718.58v3.48c-.41.43-.79.85-1.2,1.29v2.28l-1.15,1.23v2.29l1.19,1.34v17.08l2.5,2.84c2.63-.53,4.2-2.11,5.67-3.94v-5.68l1-1v-5c-1.88-.75-.34-2.91-1.66-4s.29-3.22-1.82-4c.42-1.24-.32-2.61.49-3.92l.78-.74V714a3.88,3.88,0,0,1-1.34-2.34,1.87,1.87,0,0,0-1.95-1.46c-.69,1.48.56,3.21-.82,4.44C291,715.67,292.44,717.81,290.54,718.58Z"/><path class="cls-1" d="M304.48,584.61c.82.2.93,1.42,2,1.45.72-.86.19-1.84.37-2.73C304.83,582.44,304.73,582.52,304.48,584.61Z"/><path class="cls-1" d="M310.1,802.08c-4.4,2.56-9,4.25-13.05,6.83-.43.26-1.12.07-1.67.19a9,9,0,0,0-1.34.48v3.57l1.19,1.38V818c1.65.79.8,2.41,1.28,3.55l5,5,1.23-1.06c1.23-.24,2.6.28,3.82-.35l.84-.86h2.34l1.64-1.65c.09-.91.18-1.83.25-2.58.43-.42.7-.7,1-1l-1.13-1.23v-9.28l-1.16-1.23C310.25,805.56,310.53,803.84,310.1,802.08Z"/><path class="cls-1" d="M303.6,483.46l3.12-2.52L304,477.68c-1.24,1.2.14,3.3-1.72,4.05,0,1.33-.35,2.64.24,4C303.71,485.76,303.18,484.79,303.6,483.46Z"/><path class="cls-1" d="M291.64,1077.17c-.56-1.58,1.48-2.19,1.19-3.6,1.61-2.42,2.49-5.24,4.05-7.64.73-1.13.08-2.46.8-3.14.9-.86.92-2,1.54-2.92a38.75,38.75,0,0,0,2.51-4.78c.77-1.63,1.59-3.23,2.43-4.83.92-1.75,1.62-3.61,2.67-5.3-.54-2,2-3.3,1.17-5.35a8.76,8.76,0,0,0,2.21-4.3,14.41,14.41,0,0,1,1.91-4.48c.48-.94.59-2.07,1.51-2.92.76-.69-.34-2.28.88-3.1s-.17-2.29.83-3.15l.83-.82v-2.32l1.2-1.28v-2.3c1.52-.82.64-2.62,1.36-3.5.84-1,.63-2.13,1-3.11.48-1.2,1.29-2.2,1.14-3.64,0-.4.65-.88,1.05-1.37l.14-2.41,1.09-1.07v-2.32l1.2-1.29V994l1.13-1.29a21.22,21.22,0,0,1,0-3c.08-.49.9-.92.88-1.35-.1-2.47,2.39-4.4,1.28-6.94L329,980c.24-1,0-2,.72-3.16a32.16,32.16,0,0,0,2.8-5.82c.63-1.75,1.49-4.12,2.69-5.28,1-1,.68-2.58,2-3.31.17-.1,0-.74,0-1.11,1.52-1.52,2.85-3.33,4.6-4.47a17.68,17.68,0,0,0,4.45-3.44c.56-1.27.18-2.15.7-3.14.82-1.56,2.23-3,2-5-.05-.4.62-.89,1-1.42.32-2.34-.18-4.84.23-7.13l1-1v-5.78l1.2-1.3v-2.26c.41-.45.79-.88,1.2-1.32v-3.46c2-.88.24-3.49,2.11-4.4.1-1.3.21-2.61.3-3.79l1.14-1.15v-4.66l1-1.05v-3.45l1.2-1.3v-2.25l1.2-1.33v-3.45c2-.89.23-3.5,2.11-4.4.11-1.31.21-2.62.28-3.64l1.06-1.42v-3.39c1.56-.49.87-2.65,2.33-3.45-.55-1.5,1.69-2,1.23-3.61-.42-1.47,1.95-2.43,1.11-4.17.74-1.08,1.49-2.16,1.16-3.59,1.69-.92.83-2.77,1.47-4,.29-.29.57-.56.85-.85v-2.3c.41-.43.8-.85,1.21-1.3v-2.23c.41-.47.79-.89,1.2-1.34v-2.73a22.42,22.42,0,0,1,1.32-3.11c.41-.62,1.12-1,.95-1.95-.2-1.07.51-1.69,1-2.51a5.78,5.78,0,0,0,.28-2.49l1-1v-2.31l1.2-1.29v-2.23l1.2-1.35v-3.39a5.15,5.15,0,0,1,.47-.47c1.33-1-.12-3.15,1.63-4,.19-.1.16-.7.17-1.07,0-.78,0-1.56,0-2.42l1.09-1.27.18-2.46,1.06-1.06v-2.3l1.2-1.29v-2.51c1.62-.36.87-1.78,1.19-2.82a8.76,8.76,0,0,1,1.77-3.31c1-1-.13-2.53.82-3.15,1.5-1,.32-2.6,1.19-3.63l.83-.83v-3.47c.41-.43.8-.85,1.2-1.29v-2.31c2-.87.31-3.44,2.1-4.39a7.89,7.89,0,0,1,1.33-4.12,8.54,8.54,0,0,0,1.45-4.49l.93-.93v-2.31l.86-.92c.62-1.25.17-2.13.71-3.12,1.37-2.52,3.16-4.9,3.4-7.92,0-.3.52-.56.8-.83.05-.92.1-1.84.13-2.5l1.1-1.06V756l1.2-1.29v-2.22l1.2-1.38V748a24.86,24.86,0,0,0,2.09-3.52c.46-1.16-.2-2.73,1.31-3.55v-2.3l1.2-1.29v-2.23c2.09-2.3,2.39-5.32,3.42-8a10.74,10.74,0,0,1,1.05-2.49c.47-.69,0-2.08.55-2.64.94-1,.63-2.64,2-3.3-.52-1.35,1.48-1.83,1.13-3-.47-1.57,1.09-2.29,1.26-3.61.13-1,1.48-1.7,1.12-3s1.59-1.7,1.15-3,1.11-1.89,1.16-3c.05-.94-.2-1.9.78-2.61s-.16-2.2.8-3.17c.6-.62.67-1.79,1.31-2.33,1.31-1.11-.23-3.23,1.61-4,.06-1,.16-1.9.17-2.85,0-1.91,0-3.83,0-5.5l1.26-1.26v-4.67l1-1c.16-1.69-.13-3.42.09-4.74l1.13-1.18v-2.27c.41-.45.8-.87,1.2-1.32v-3.35l1.3-1.53c-1.16-2.13,1.06-3.78.95-5.81-.07-1.28,1.65-1.71,1.2-3s1.14-1.88,1.16-3c.05-1.71,2.06-2,2.45-3.67a6.8,6.8,0,0,1,2.06-3.79c-.29-1.78,1-3.09,1.41-4.67l-1.23-1.35v-3.5l-3.08-3c-1.48.32-3.21-.3-4.7.2l-1,1H434.6l-1.29,1.2h-2.25a17.74,17.74,0,0,1-3.38,1.24c-2.19,1.36-3,3.51-4.28,5.57,1,2.78-1.06,5.23-1.36,8,0,.3-.51.55-.83.87v3.42l-1.2,1.3c-.13,1.06.34,2.25-.8,3.15-.72.57-.3,1.76-1.2,2.45-.42.32-.14,1.44-.37,2.13a26.37,26.37,0,0,0-1.1,2.45,14.85,14.85,0,0,0,0,2.91c0,1.14.22,2.35-1,3.08.35,1.79-1.08,3.07-1.39,4.67l2.38,2.51v2.36c-1.5.82-1,2.32-1.29,3.72-2.22,1.17-2.2,4.28-4.51,5.42v3.61l1.2,1.29v5.72c.42.49.8.91,1.2,1.37v3.38a6.53,6.53,0,0,0,1.31,1.28c1.44.74,2.94,1.36,4.42,2v3.56a7.78,7.78,0,0,0-2.14,4.26c-.11,1.47-1.59,2.3-1.27,3.57.4,1.59-1,2.33-1.34,3.58s-.82,2.38-1.2,3.59-1.24,2.24-1,3.64c-1.28.71-.9,2.42-2,3.28a1.27,1.27,0,0,0-.33,1c.23,1.28-.7,2-1.11,3s.22,2.33-1.05,3.06c.2,2.47-2.33,4.41-1.22,6.94l-1.31,1.47c0,.67.33,1.79-.06,2.15-1.28,1.18-1,3.37-2.8,4.12-.59-1-1.19-2.08-1.69-3v-5.66l1.2-1.59v-3.24l1-1v-5.78l1.21-1.29v-4.61l1.11-1.21v-5.85l-1-1v-8.42l.86-.85c.26-3.73.26-3.73,2.49-7.18V697.7l-.8-.86c-.68-1.25.15-2.32-.78-3.13H401l-4.11,2.2H395l-1.29,1.2h-2.3c-.82,1.51-2.39.84-3.55,1.31a29.52,29.52,0,0,0-3.74,2.16h-3l-1.28,1.11c-1,.27-2.25-.38-3.1.8-.57.8-1.8.23-2.47,1.19-.29.42-1.42.19-2.1.43a24,24,0,0,1-2.45,1.1,16.59,16.59,0,0,1-2.91,0,10.93,10.93,0,0,0-1.12.12c-1.45,2.07-4.26,2.44-5.64,4.54H357.6l-1.28,1.2H336.55c-1.27,1.27-3,2.3-3.63,3.79-.82,1.84-1.88,3.62-3.49,4.2-1.81.65-2.6,2.09-3.91,3.08,1.17.87,2.91.93,3.39,2.31v4.31l-3.4,6.57v2c2.13,1,2.25,3.76,4.09,5.18,1.52,1.18,2.09,3,2.9,4.62.73,1.46,1.48,2.9,2.4,4.7v3.15c1.73.74,1.09,2.15.9,3.45l-3.3,3.3v5.95c2,1,2.21,3.28,3.4,4.72v3.32L335,777v5l2.71,2.49c1.32,2.62,2.21,4.38,3,5.93-.56,1.2-.78,2.45-1.52,3.1-1,.83-.52,2.21-1.58,2.9-.8.53-.37,1.69-1.17,2.46a8.92,8.92,0,0,0-1.49,2.84c-.41,1,.2,2.32-1.06,3.06.13,2.56-2.51,4.73-1,7.68.55.52,1.74,1.14,1.83,1.88.12,1.11.92,1.61,1.23,2.44a9.51,9.51,0,0,1,.05,2.75l2.32,1.55c0,1.68-.22,2.91,1,3.59v19.48c-1.09,2.32-1.85,4-2.63,5.6l-2.46,2.46c-1.09.13-2.28-.33-3.18.8-.57.72-1.66.48-2.46,1.17s-2.05.48-3.1.68v1.51l1.8,1.61,3.76.19c.14.66.25,1.19.61,2.84l2.32,1.14c-1.2,2.38,1.8,3.59.75,5.82l-2.28,2.4v5.78l-5.8,5.81v2.29l-1.2,1.3v1.82c-.88.87-2.11,2.08-3.35,3.32v3.07l.95,1c.27,2.46-.12,5,.19,7.19l5.78,5.79v4.67l1.07,1.07v9.25c.41.44.8.86,1.19,1.3.16,1.34.17,2.66-1.14,3.56.51,1.5-1.58,2-1.26,3.62.28,1.43-1.24,2.53-1.72,3.9a26.64,26.64,0,0,1-1.69,3.38v3.15c1.55.51.91,2.64,2.3,3.45v9.29a6.44,6.44,0,0,1-1.27,1.24c-1.43.76-2.92,1.4-4.38,2.08l-.08.3h0l0,.14c-.07.26-.09.35,0,0l0-.14-2.4,3.39c-2.72,1.61-3.53-.67-5.1-.73-.66,0-1.72-1.2-1.81-1.94-.16-1.42-1.25-1.82-1.94-2.57H305l-2.52,2.53a26.14,26.14,0,0,1-2.92,2.85c-1,.75-.72,2.06-1.59,2.88a24.05,24.05,0,0,0-4.68,5.61c-1.11,2-3.18,3.36-4.83,5-.56,2.66-3,3.77-4.34,5.55-1.8.2-2.66-2.14-4.43-1.14-.3.17-.57.4-1.15.82,1,.72,1.9,1.41,2.51,1.87v2.4l-1.57,1.9-1.35.08-5.75,5.76h-1.16l-1.68,1.68,3,1.72c1.29.11,2.77-.19,3.47.41,1.06.91,2.21.51,3.15.94a19.85,19.85,0,0,0,3.43,1.58l8.64,8.65.94-.94h6c.86-1.83,2.54-.82,3.64-1.43l1.58-1.58,13.07-6.5c.82.7,1.62,1.15,1.85,2.08l-6.21,6.21h-1.22l-5.7,5.76c-3.18.57-4.17,3.78-6.49,5.21v2.44l1.16,1.28c-.22,1.33.54,2.74-.5,3.91l-1.19.08-2.54-2.41-1.79.48c1.24,1.24,2.86,2.13,3.26,3.41,1,3,3.49,4,5.81,5.38,1.75-.8,1.34-3.09,2.87-4.09.42-.28.57-.52,1,.1v3.66l-2.34,2.34v4.66l-1,1v1.52l-2.4,1.89v3.59l-1,1.22c-.11,1.37-.2,2.51-.29,3.65-1.48.92-1,2.41-.93,3.67s-1.75,1.74-1.19,3c.73,1.64-1.9,2.05-1.18,3.63l-4.51,4.46a11.29,11.29,0,0,1-.45,1.63c-.22.5-.62.91-.87,1.39a10,10,0,0,0-1.13,2.44,8.2,8.2,0,0,1-.76,2.62c-.67,1.22-1.23,2.63-1.87,3.87-.53,1-1,2.1-1.6,3.09h5.33C290.29,1078.82,292,1078.33,291.64,1077.17Zm94.73-301.79h4.8l3.16,1.61c0,1.94,0,3.87,0,5.8,0,.14-.24.28-.37.42l-2.4-1.21-5.33-5.4C386.23,776.55,386.29,776,386.37,775.38Z"/><path class="cls-1" d="M280,600.89v8.36c1.75.17.84,2.13,2,3.08.85.71.95,2.27,1.52,3.38.67,1.28,1.77,2.4,2.17,3.75s.77,2.31,2.1,2.73l1.29-2.73L287,615.63v-3l-1.17-1.36c0-.61.32-1.72-.06-2.08-1.13-1.07-.89-2.9-2.26-3.74V591.52l1.13-1.23v-17.5c-2-.73-.67-2.77-1.6-4s-1.17-2.67-2.53-3.45a3.69,3.69,0,0,1-.83.8,17.8,17.8,0,0,1-2,.72c0,5,0,9.81,0,14.65a3.37,3.37,0,0,0,.33,1l.82.82v16.29Z"/><path class="cls-1" d="M275.86,482.36c1.87-.21,2.41,1.62,3.74,2.46l1.45-.38v-9.7c-2.15-2.66-5.58-3.53-7.41-6.46-.46.93-.79,1.74-1.25,2.47s-1.54,1.14-1.75,2.19c1.18,2.41,2.46,4.77,3.47,7.25C274.51,481.17,275.34,481.59,275.86,482.36Z"/><path class="cls-1" d="M274.88,529.2c1.16-.5,2.57.4,4-.72-.72-1.48.94-2.59,1-3.92,0-1.83,1.29-3,1.67-4.59.12-.5.76-1,.73-1.41-.1-1.26.55-2.06,1.12-3.06s-.29-2.31,1-3.07c0-2.56,2.32-4.73,1.23-7.46l-1-1v-7c-.47-.48-.74-.75-1.22-1.22v-4.67l-4-4c-.82.25-1.79-.35-2.54.25l-.94.93h-3.47l-1.24,1.16h-3.48l-4.54-4.54c-1.86.86-1.93,3-3,4.32v18.33l9.7,9.69,2,3.46v1.73C273.29,524.65,273.23,527.23,274.88,529.2Z"/><path class="cls-1" d="M276.46,1073.21c2.24-1.32,2.28-3.85,4.06-5.06.66-2.32,2.59-3.64,4.15-5.34,0-1.49,0-3,0-4.58,0-.15-.23-.29-.63-.75-1.93,2.19-2.79-2.1-5.08-.73-.06,1.21-.12,2.52-.19,3.83-1.1,1.1-2.73,2-3.16,3.34-.59,1.81-1.93,2.75-3,4s-2.14,2.17-3.16,3.19V1079c-.23.35-.43.7-.62,1h7.68Z"/><path class="cls-1" d="M1.36,711.4C.8,710.3.23,709.17-.34,708v4.86A8.53,8.53,0,0,0,1.36,711.4Z"/><path class="cls-1" d="M247.8,394.8c1.34-.53,1.78-2.52,3.5-2.24l4.19-4-1.17-1.3c.73-1.73-1.17-2.8-1.08-4.19.12-1.81-2-2.87-1.25-4.76.62-1.63-1.81-2.48-1.16-4.16a11.1,11.1,0,0,1-1.39-4.51c-.37-.37-.64-.65-.93-.93v-3.46l-1.06-1.14c-.16-.67-.28-1.2-.35-1.5l-4.91-2.22c-.2-.27-1.24-1.6-2.26-2.92L238,359.32v2l-2.28,4v5.45l1.33,2.07-1,1.3,6.8,6.8c0,1.36.75,2.27,1,3.28s-.05,2.31,1.2,3v3.42C246.45,391.73,246,394,247.8,394.8Z"/><path class="cls-1" d="M255.67,399.48c-.2-1-.3-1.54-.44-2.3l-2.19.41c.15.78.25,1.3.37,1.89Z"/><path class="cls-1" d="M163.27,461.25c.09-.64-.3-1-1.1-1C162.14,461.06,162.53,461.45,163.27,461.25Z"/><path class="cls-1" d="M161.35,745.89c-2.35-1.77,1.25-1.67.26-3.43-.88.53-2.06-.47-3,.75l1.16,1C160,744.94,159.41,745.88,161.35,745.89Z"/><path class="cls-1" d="M1.82,744.87H-.31v8.26l.3-.08-.15,0,4.69-4.67c-1-1.58,1.56-2.35,1.3-3.94s1.31-2.55,1.51-4L9.81,738c.59-.24,1.5.2,1.73-.82-.78-.86-1.81-.25-2.77-.47l-5.3,5.45C3.93,743.53,2.46,743.92,1.82,744.87Z"/><path class="cls-1" d="M2.35,736.15a48.81,48.81,0,0,1,4.17-4.1c1.55-1.22,1.64-3.4,3.36-4.57H20.2c1.34-1.46,2.65-2.87,4.25-4.62v-3l-1.12-1.24c0-1.87,0-3.8,0-5.74,0-.14.23-.29.55-.65a7.51,7.51,0,0,1,1.42,1.46c.6,1.1.95,2.33,1.53,3.45.67,1.28,1.23,2.78,2.28,3.67s1.26,2.28,1.89,3.36c.78,1.34,2,2.7,1.65,4.54-4.92,5.73-5.15,5.93-7.86,7.14-1.09,2.26.78,3.76,1.49,5.54.26.66,1.16,1.05,1.56,1.69.23.38,0,1,0,1.52-1.3.33-2.42.75-3.35-.25s-2.11-.59-2.9-1.58c-.32-.4-1.45-.16-2.2-.19-.14,0-6.36,3.84-6.57,4v6.87c-.84.78-1.3,1.73-2.64,2-1.53.35-2.88,1.44-4.3,2.23a27.39,27.39,0,0,0-4.3,2.31c-.24.19-.74.07-1.12.09L-.3,761,0,1048.81c.53-.19,1.07-.35,1.61-.51a5.15,5.15,0,0,0,2.06-.7,19.45,19.45,0,0,1,3.21-1.69H9.54l2.23-1.16a15.79,15.79,0,0,1,2.44-1.13c.69-.21,1.56.19,2.1-.59s1.36-.46,2.07-.65,1.59-.86,2.45-1.09a8.63,8.63,0,0,1,2.22,0c.17.8.28,1.33.4,1.87s.58.56.81.11c.59-1.18,2.18-.5,2.88-1.62.2-.32,1-.41,1.55-.33,1.47.23,2.22-1.15,3.5-1.5s2.23-1.74,3.62-2.44,2.31-1.74,3.67-2.42c1.11-.55,1.77-1.76,3.24-2.09,1.16-.26,1.51-2.07,3.19-2.18.74-.05,1.42-1.2,2.12-1.85s1.13-1.48,1.68-1.47c1.9.05,2.22-2.28,3.71-2.35,1.84-.07,2-2.29,3.69-2.41,1.5-.1,1.94-1.73,3.12-2.32.77,0,1.59-.08,1.6,1,.16,1-.63,1.41-1.19,1.85s-1.65.76-2.36,1.29a20.94,20.94,0,0,0-2.08,2c-.27.27-.59.78-.83.75-1.95-.27-2.24,2.13-3.71,2.31-1.15.13-1.6.91-2.33,1.47-1,.79-1.59,2-3.2,2.2-1.17.15-1.6,1.92-3.1,2.32-1.17.31-2,1.82-3.17,2.14s-1.81,1.33-2.67,2c-.6.47-1.12,1.49-1.68,1.5-1.67,0-2.15,1.48-3.22,2.17a10.94,10.94,0,0,1-2,.85,3.73,3.73,0,0,1-1.51.52c-1.76-.18-2.87,2.08-4.79,1.19l-1.28,1.18H20.45l-1.29,1.2H16.11l-4.14,2.2H7.48l-1.2-1.2-1.19,1.89c-2,.55-3,1.78-4.57,1.83-.14,0-.41.27-.39.39a1.89,1.89,0,0,1-.15,1.08v13.62H1.67c.15,0,.29.22.46.36,0,1.23-.95.63-1.85.91l-.29.34v9.5a6.21,6.21,0,0,0,.65.79H143.84c1.48-1.45,2.93-2.93,4.39-4.41.52-.52,1.27-.93,1-2.35-.37-.37-1.08-1-1.68-1.71s-1.8-1.31-1.82-2.78c0-.73-1.46-1.24-1-2.48l1.69-1.69c.82.21,1.79-.35,2.4.12,1.25,2.49,2.36,4.72,3.42,6.82h2.32l1.78-1.67v-4.66l1.2-1.32v-3.41l1.08-1.08v-4.67l1.24-1.23V1050l1.23-1.24v-4.2c.57-1.1.84-1.57,1.07-2.07.55-1.13.81-2.57,1.68-3.34,1.32-1.18-.07-3,1.51-4.15.87-.62,1-2.23,1.48-3.4.33-.84,1.53-1.3,1.16-2.43-.45-1.36,1-1.91,1.22-3a9.45,9.45,0,0,1,1.13-2.44c.35-.64,1.13-1.26,1.1-1.85-.16-3.12,2.82-5.19,2.64-8.27,1.09-1.05,1.32-2.57,2.06-3.81a9.49,9.49,0,0,0,1.37-4.14c.12-1.3,1.65-2.41,2.09-3.76s2-2.45,1.23-4.16c1.18-1,.94-2.85,2.33-3.7-.23-1.72,2.1-2.84,1-4.9l-1.51-1.51h-1.31c-1-1-1.87-2.63-3.18-3.15a8,8,0,0,1-3.55-2.63c-1-1.33-2.88-1-3.69-2.38H160.43c-.46.41-.89.79-1.33,1.2H139.36l-1.08,1.08h-4.69a14.3,14.3,0,0,1-3.77,2.79c-1.24.69-2.34,1.71-3.66,2.43a20.48,20.48,0,0,0-3.45,3c-1.95-.19-2.15,2.84-4.28,2.33-1.1,1.1-2,2.65-3.35,3.17a11,11,0,0,0-3.59,2.59c-1.88-.2-2.43,1.64-3.78,2.47l-1.4-.38,18.32-18.33a2.23,2.23,0,0,0,1.13-.43,3.2,3.2,0,0,1,2-.85c.48-.07.81-.9,1.31-1a8.29,8.29,0,0,1,2.1,0l1.48-1.26h11.41l1.52-1.2h14.95l1-1h11.69l1.21,1.1h2.26l1.3,1.2h2.28c2.22,2.22,4.41,4.43,6.63,6.6a2.83,2.83,0,0,0,1,.38c.18,0,.44,0,.55-.06,1.42-1.31,2.82-2.64,4.09-3.83v-2.51c.43-.52.8-.94,1-1.22v-4.71c-.36-.36-.75-.58-.89-.92-.49-1.15.11-2.56-1.2-3.63-.73-.6.17-2.1-.82-3.14a5.06,5.06,0,0,1-1.56-3.35c.14-1.56-1.14-2.31-1.34-3.6-.1-.66-.87-1.2-1.06-1.87-.13-.44.24-1,.37-1.49h1.51c0,2.94,3.76,3.54,3.94,6.46,2.29,1.63,2.62,5,5.25,6.17l1.7-1.48c0-.53,0-.91,0-1.14,1.58-2.26,4.34-3.4,5-6.27,2.45-1.38,2.83-4.44,5-6.09h2.23l1.33-1.21h4.58l1.08-1.08h4.2c1.89-1,3.1-2,4.46-2.29,1.51-.37,1.94-2.22,3.11-2.3,1.87-.12,2.27-2,3.42-2.35h2.43l3.4,3.39c1.84-.29,2.29,1.71,3.64,2.23.87-.79.25-1.83.46-2.73L242.65,945v-4.6l-1.2-1.32v-4.58l-1.08-1.08v-4.66l-1.23-1.24V924L238,922.83c0-1.82,0-3.75,0-5.68,0-.15-.19-.3-.3-.46l-.82-.82c-.14-1.69.13-3.42-.09-4.73l-1.13-1.2v-3.42l-1.2-1.33v-5.74l-1-1v-3.64l1.17-1.49v-6.63l1-1.42v-3.19c.36-.39,1.14-.89,1.07-1.2-.31-1.38,1.19-1.84,1.32-3a5.76,5.76,0,0,1,1.13-2.42c.63-.93,1.82-1.65,2.06-2.64.42-1.68,2.56-3.06,1.09-5.13l-.83-.83v-2.3l-1.2-1.29V861l-1.08-1.22V849.27l1.09-1.09v-8.24c1.91-1.24,4,.19,5.69-.9l.16-1.16c-.5-1.25-2.15-1.63-2.34-3.12s-1.79-1.89-2.26-3v-3.6c.64-1.71,2.09-2.92,2.37-4.9.25-1.7,1.45-3.26,2.23-4.89v-2l3.57-2.37v-3.32a19.51,19.51,0,0,1,2.57-2.51c1.08-.72.58-2.13,1.6-2.88a5.7,5.7,0,0,0,1.79-2.74c.64-1.68,2.62-2.47,3.45-4.4s2.77-3.14,3.92-4.35c1.11-2.13,2-3.89,2.93-5.65-.81-1.72,1.47-2.59,1.17-4.18,1.38-.85,1.05-2.78,2.38-3.73V768.78l1.08-1.08V746c.7-1.19,1.06-1.82,1.31-2.26-.59-1.72-2.77-2.07-2.36-4.49L266,736.1v-9.52a14.83,14.83,0,0,1,.05-2.91c.14-.67.89-1.2,1.08-1.87.24-.87-.29-1.95.7-2.63,1.19-.82-.13-2.28.83-3.16l.83-.83v-2.31l1.2-1.29v-2.29c1.23-.72.95-1.94,1.21-3s1.19-2.17,1.21-3.61c0-.92,1.15-1.79,1.32-2.91,1.65-.76.37-2.54,1.24-3.57l.83-.83V693l1.2-1.29v-2.27l1-1v-5c-1.57-.77-.4-2.83-1.29-3.46-1.6-1.13-.29-2.95-1.53-4.14-.85-.82-1.18-2.19-1.7-3.25v-1.81l-1.11-1.21,1.18-1.35V652.1l1.1-1.1V638.16l1.09-1.09V627.7l-1.07-1.21v-2.23c-.4-.44-.79-.86-1.2-1.29v-2.28l-1.2-1.3v-2.9a9.33,9.33,0,0,1-1.08-2.45,3.9,3.9,0,0,0-1-2.57c-.4-.46-.11-1.46-.27-2.19-.2-.89-1.4-1.27-1.18-2.44a13.64,13.64,0,0,0,0-2.4l-1.14-1.29v-2.23l-1.2-1.29v-3.44l-1.2-1.31v-2.2l-1.24-1.44c1-2.57-1.44-4.5-1.32-7,0-.26-.51-.55-.9-.94,0-1.23.06-2.58,0-3.92-.08-1.51.32-3.06-.17-4.44l-1-1c0-3.84,0-7.72,0-11.6,0-.15-.23-.29-.36-.43l-.81-.85V548.35l-1.1-1.21V539l1.21-1.42c-1-2.75,2-4.91,1-7.67l1.16-1.38c.79-2-1.06-3.34-1.44-5.08-1.16-.59-.52-2.16-1.63-2.85s-1.19-1.86-1.78-2.71c-.95-1.36-1.47-2.94-2.66-4.23s-2.26-3-1.76-5l-1.19-1.32v-5.73l-1.09-1.09v-4.67l-1.23-1.23V490l-1.08-1.07v-3.44L246.17,483c0-.41,0-.79,0-1.17l-4.1-4.09c-.69-1.33-1.11-2.13-1.68-3.24v-1.93l1.13-1.21V466.4c-2.38-.48-.05-3.37-2.1-4.19-.12-1.31-.24-2.62-.35-3.86l-1.09-1.09V452.6l-1.24-1.24v-3.52c-.47-.46-.75-.74-1-1v-3.49l-1.2-1.29v-3.38l-1.2-1.38v-3.37l-1.1-1.11v-3.34L231,428v-2.82c-.86-1.68-1.6-3.13-2.33-4.58a9.39,9.39,0,0,1-1.12-2.44,8.87,8.87,0,0,0-.87-2.57c-1.09-2.27-2.46-4.43-3.35-6.77-1-2.52-2.85-4.62-3-7.54-.06-1.11-1.36-2.11-1.93-3.24s-.79-3-1.76-3.88c-1.28-1.15-.34-2.56-1.12-3.69-1.33-1.92-2.07-4.19-3.22-6.05l3.43-6.52-4-3.95h-1.1l-1.7-1.7c.36-.4.73-.8,1.13-1.26-1.39-.86-2.86-.55-4.27-.36l-1,1c-1.81,0-3.74,0-5.67,0-.16,0-.31-.18-.46-.28.3-.74.3-.74,1.47-.88a13.08,13.08,0,0,0,2.37-2.45c.69-1.23,2.2-.62,2.87-1.62v-3.48l-1.13-1.22V346.47l1-1c.07-2.68.15-5.55.26-8.41,0-.14.25-.27.46-.48l1.72.29v5l1.23,1.24v5.15c2.27,4.24,6.47,5,8.66,8.28l1.78-3.42v-1.89l1.2-1.31v-3.47a2.93,2.93,0,0,0,1.19-2.46c.1-1,.93-2,1-3a2.92,2.92,0,0,1,1.17-2.48V323.21l-3.44-3.68c.37-2-2.64-2.26-2.33-4.28l-3.52-3.9v-1c-.88-.69-1.38-2-2.81-1.73-1.35-1.9-3.58-2.71-5.4-3.92s-3.39-2.73-5.51-3.54c-1.08-.41-1.86-1.84-2.56-2.94s-1-2.34-1.63-3.39c-.79-1.24-1.12-2.7-2.39-3.74-.9-.74-1.25-2.15-1.72-3V276.37l1-1c.21-1.37.27-2.68-1.09-3.57.52-1.36-.95-1.91-1.27-3s-1.45-2.1-2.33-3.28V243.1c-1.32-2.65-2.4-4.74-3.37-6.87a4.44,4.44,0,0,1,0-1.71l-1.17-1.26c.54-3-2.81-4.84-2.33-7.81-1.12-2.07-2.25-4.14-3.49-6.44v-9l1.11-1.21V196.29a24.64,24.64,0,0,1-2.22-4.13c-.31-1,.1-2.32-1.12-3,.42-1.49-1.75-2.08-1.27-3.55s-1.12-1.84-1.22-3-1.28-2.1-1.24-3.6c0-1.11-1.05-2.24-1.63-3.36h-1.08l-4.19-4.09v-4.65l-1.2-1.33V153.76l-1.84-.5c-1.91-1.66-3.55-4-6.29-5.2-1-.41-1.64-1.55-2.23-2.13v-4.75c.48-.6.82-1,1.2-1.54v-7.93l1-1a37.74,37.74,0,0,0,.06-4.13l-4.76-9.54v-6.32l-.94-.94v-4.93c.27-.27.46-.38.54-.55,1.34-2.75,2.55-5.57,4-8.24,1.57-2.85,2.71-5.93,4.63-8.58-.14-1.73,2-2.86,1.21-4.65l1.06-1.22V76.39l-1.35-3.09c-1.2-2-3.54-2.86-4.46-5.15s-3.13-3.32-4.6-5.23v-1l-2.31-2.47c1.31-1.25,3.07.13,4.39-.88.71-.92-.22-2.17.75-3.2a13.62,13.62,0,0,0,1.81-3.3c0-1,0-2,0-2.92s.31-1.91-.46-2.7l-2.24-4.74-3-1.42-2-.12-1.07-1.09h-2.32L144,37.88h-2.22l-1.38-1.2H126.51c-1.17-1.17-2.32-2.23-3.36-3.39s-2.41-1.91-3.07-3.44a8.49,8.49,0,0,0,1.19-2.42c.16-1.15,1.74-1.64,1.23-3s1.07-1.82,1.26-3,1.09-2.25,1.68-3.36l.24.24c.69-.93,1.39-1.85,1.9-2.53,1.52-.08,2.61.16,3.55-1,.68-.8,2.27.32,3.11-.87s2.61.14,3.61-1.2c.62-.84,2.17-.54,2.78-1.67h3.07l5.63-2.91V3.94c-.67-1.32-1.19-2.28-1.64-3.26a1.87,1.87,0,0,0-.54-.68H129.52c-.7.71-1.42,1.44-2.18,2.13-1.08,1-2.88,1-3.63,2.49-.83,1.7-3,1.54-4.11,3-.9,0-1.87,0-2.83,0-1.12-.07-2.29.31-3.33-.29L112.12,6V0H-1l.35,383.05A2.36,2.36,0,0,1,0,384.41a1.55,1.55,0,0,1-.65,1.26l.29,320.79a1.47,1.47,0,0,1,1.41.39,3.44,3.44,0,0,0,1.13.59h0s0,0,0,0l5.93,5.93-.17.94c-1.62.75-3.39-.11-5.29.5-1.49,1.31-2.17,3.24-3,5.14v18.72l2.67-1.32Zm12.83,38.21v-2.11c1.37-.83,2.83-.49,4.26-.34a3.72,3.72,0,0,1,.38,1c0,2.63,0,5.26,0,7.91-2.12-.25-2.1-1.91-2.72-3.07S15.89,775.62,15.18,774.36Zm5.95,37h-2l-1.58-1.86a4.4,4.4,0,0,1,.16-2.65h8.9c.07.66.12,1.18.17,1.66ZM6.62,1072.56c-1.2,0-.55-1-.83-1.56a6.55,6.55,0,0,0-1.13-1.23v-4.61l-.82-.82a3.82,3.82,0,0,1-.32-1c0-1.33,0-2.67,0-4a1.36,1.36,0,0,1,2-.33,9.26,9.26,0,0,1,1.23,1.2C7.21,1061,7.18,1066.91,6.62,1072.56ZM64.9,662h-5c-.73-.78-2.2-1.71-2.68-3-1-2.7-2.88-5-3.59-7.8.66-1.22,2.28-.91,3.14-2s1.47-2.07,3.07-2.35c1.09-.19,2-1.56,3.26-2.66l2.25,2.28v12.82l1.07,1.07Zm68,302-1.78,1.43-2-4.48c-1,.17-1.29,1.2-2,1.65s-1.62.77-2.37,1.25c-.92.58-2.24.44-2.81,1.61s-1.9,1-2.81,1.61a20,20,0,0,1-3.29,1.83c-.38.16-1-.25-1.64-.43,1.41-1,2-2.7,3.61-3s1.91-2.19,3.08-2.26c1.86-.13,2.22-2.22,3.67-2.37,1.62-.18,2.11-1.51,3.11-2.31a15.91,15.91,0,0,1,5.28-2.58ZM242.6,775.9c-.5.5-.5.5-3.87.52-.29-.24-.59-.47-.86-.73s-.56-.54-.93-.92v-4.94c.43-.16.76-.31,1.11-.4a2.52,2.52,0,0,1,.7,0c.16.46.34,1,.79,2.28l3.16,2.52C242.64,775.14,242.62,775.52,242.6,775.9Zm-8-224.8c1.46-2.5,2.13-5.51,4.58-7.4v-5.82l-.81-.89c-.74-1.16-.19-2.53-.34-3.82l-.87-.87c-.62-1.21-.21-2.55-.25-3.88,1-.94,1.09.44,1.87.64h2.12c1.7-1,2.27-2.87,2.86-4.52.36-1,1.49-1.6,1.38-3-.05-.66,1.16-1.26,1.15-2.41,0-.54,1-1.09,1.62-1.71l1.58,1.48c-.1,2.72,2,4.61,2.64,7.49-1,.88-2.58,1.7-3.17,3a13.94,13.94,0,0,1-3,4c-1.08,1.1-2.19,2.19-3.28,3.28V539l1.14,1.22v3.6c-2.06,1.14-2.36,3.7-4.1,5.2s-3,3-4.54,4.5A1.71,1.71,0,0,1,234.57,551.1Zm-18.25,13.08c.54-.47,1.54,0,2.45-.08a22.28,22.28,0,0,1,2.31,0l.87-.87c1.21-.61,2.55-.21,3.85-.24a18.86,18.86,0,0,0,2.08,2,8.17,8.17,0,0,0,2.06.74l-1.8,1.8H217.77l-3-1.79ZM198.77,447.43h1.31c1.72.82,1.53,3,2.89,4v2.26l1.18,1.28v2.26c.39.41.78.83,1.18,1.24-.19.89.38,1.89-.48,2.82a4.83,4.83,0,0,1-1.1-.94c-1.56-2.59-2.59-5.47-4.25-8C200.79,450.52,197.39,449.62,198.77,447.43ZM189.83,432c.85-.74,1.38-1.87,2.71-2.15,2.31.6,2.29,3.07,3.55,4.61-.43.82-.85,1.61-1.25,2.41s-.73,1.65-1.19,2.42-1.06,1.52-1.6,2.27c-.22-.16-.47-.26-.48-.37-.14-2.46-.25-4.93-.39-7.66l-2.36-.21A8.46,8.46,0,0,1,189.83,432Zm.38,59v4.68c-.94.87-1.4,2.49-3.33,1.66l-.33-1.6-2-2c-.08-.35-.19-.7-.24-1.06a3,3,0,0,1,.91-2.55c.4-.47.11-1.47.27-2.19.19-.89,1.29-1.27,1.22-2.44,0-.59,1-1.2,1-1.84.11-1.17,1.15-1.47,1.57-2.18l3.47,2.93-1.75,2.89C190.81,487.86,192.37,489.94,190.21,491Zm-33.58-34.23,3.2,3.5h2.34c0-.58.23-1.35,0-1.71-.59-.75-1.32-1.36-1.18-2.44-2.09-1.44-2.37-4.31-4.67-5.65l1.7-1.78h4.16l8.05-8c1.95-.29,3.29-.51,4.2.93h3.75l4.25-4.44c2.37-.26,3.26-2.46,4.93-3.7H189c-.32,1.68-1.9,2.34-2.91,3.44-2.25,2.42-4.65,4.7-7,7.05h-5.74l-1.49-1.16c-1.57,0-1.52.79-1.53,1.42l-5.61,5.58c-1.17,0-2.72,0-4.28,0-.14,0-.28.24-.42.37-.06.37-.12.73-.2,1.19l3.52,3.14v1.71l3.4,3.4v3.89L165,465.05c-1.09-.46-2.06-.93-3.08-1.28-.86-.3-1.28-1.54-2.42-1.18-1.34.42-2-.91-3-1.2-.85-.24-1.61-1-2.45-1.08-1.21-.12-1.33-1.35-2.82-1.7C153.42,458.06,154.62,456.36,156.63,456.75Zm-5,186.83v-9.32a38.63,38.63,0,0,1,5.23-.19l1.23-1.15c2.68,0,5.38,0,8.07,0,.15,0,.29.22.55.44v5c-1.63,1-3.42-.11-5.5.8l-.82.78h-2.29c-1.71.8-1.47,3-2.89,4s-1,3.33-3.15,4.16l-1.69-2.22C150.64,645.37,151,644.75,151.64,643.58ZM137.78,462.23c.41-.82.9-1.77,1.54-3.05l3.33-3.33,3.54-1.55c.5.46.94.82,1.32,1.23a3.85,3.85,0,0,1,.48.81l-1.72.62c-.78,1.15-2.51,1.78-2.87,3.77-.24,1.33-2.36,1.79-2.38,3.66,0,.55-.93,1.22-1.58,1.59-.38.22-1,0-1.66-.1ZM113.87,106.76c2.3,0,4.61,0,6.9,0,.79,1.49,2.69,1.17,3.69,2.44a5.72,5.72,0,0,0,3.05,2.37c1.28.33,2.23,1.88,3.17,2.75,0,1.14-.14,1.69-1.21,1.82-1.4.16-2.42,1.93-4.28.77-.86-2-2.21-4.12-3.27-6.94l-5.14,2.63c-1.18.1-1.49-1.06-2.45-1.69a8.2,8.2,0,0,0,0-2.09,6.17,6.17,0,0,0-1-1.63C113.57,107,113.72,106.77,113.87,106.76Zm-1.51,99.46a16.62,16.62,0,0,1,3.43-1.46c.12,0,.32.12.49.18s.37.28.37.42c0,1.54,0,3.08,0,4.61.39.42.78.83,1.15,1.24v2.29c-.73,1-1.78.37-2.79.7l-3.12-3.62h-1.77c-.18-.45-.38-.94-.63-1.59A21.85,21.85,0,0,1,112.36,206.22ZM84.14,116.5c1.21-.88,2.6-.23,3.69-.39l2,1.14,1.18.73c-.15.59-.14,1-.35,1.27A6.32,6.32,0,0,1,89,120.72c-1.52.79-3.12,1.43-4.85,2.21Zm-4.76,60c1.78-2.51,2.25-5.88,5.27-7.77a6,6,0,0,0,1,2c.91.79.58,2.07,1.51,2.91.51.45.29,1.73.37,2.46-1,1-2,.43-2.92.64l-1.22,1.16H79.79C79.65,177.46,79.2,176.76,79.38,176.5Zm-2,273.24c1.88,1.65,3.41,3.54,5.38,4.58,2.16,1.13,3.26,3.19,5.38,4.61,1.36,0,3.1.79,4.6-1h4.37c1.17-.65,2.29-1.23,3.37-1.9s2.22-.49,2.84-1.6c1.94.34,2.27-1.84,3.69-2.35a16.86,16.86,0,0,0,3.48-1.43c2-1.24,2.76-3.43,3.86-5.36-.45-1.47,1.16-2.45,1.07-3.59-.13-1.53.92-2.39,1.3-3.59a27.8,27.8,0,0,1,1.6-3.41c.93-.06,1.88-.36,2.77.2.29,1.08.56,2.09-.25,3.18a20.43,20.43,0,0,0-1.81,3.32c-.55,1.13-.79,2.48-1.57,3.4s-.66,2.59-1.94,3.3c.17.86-.4,1.35-.85,2-1.38,1.92-4.05,2.1-5.32,4.09a9.77,9.77,0,0,0-4.3,2.15c-1.14,1.13-2.61,1.43-3.74,2.38-.84.7-2.34.21-2.64,1.6H90.43L89,461.49l-3.5-1.5.4-.38-9.68-9.68Zm.79,355.43c0-.63,0-1,.07-1.39a25.51,25.51,0,0,1,3.33-3.25,39,39,0,0,1,4.09-2.79,9.39,9.39,0,0,0,3.52-2.65c1-1.33,2.82-1,3.72-2.42s3.23-1.19,4-2.91c.69-1.51,2.53-1.39,3.45-2.52-.08-.39,0-.93-.23-1.09-2.07-1.48-2.31-4.35-4.42-5.64-.22-1.38.3-1.94,1.66-1.75l1.25,1.14h2.26l1.26,1.16h2.5a4.06,4.06,0,0,1,.41-1.52c.82-1.06,1.78-2,2.64-2.95,1.3-.36,2.85.26,3.66-1.29h3.61a17,17,0,0,0,1.7-2.12,26.22,26.22,0,0,0,1.87-3.89c.54-1.44,1.75-2.43,2.4-3.68a80.35,80.35,0,0,0,3.71-7.2,6.92,6.92,0,0,1,4.55-4.45c.33-.1.56-.52.87-.84h3.43l1.3-1.2h1.13c1.48-1.47,3-2.93,4.13-4.14,0-.76,0-1-.07-1.13-1.35-1.39-2.72-2.75-4.25-4.27l-2.71,1.3h-4l-1.24,1.24h-4.67L122,746l-1.6-1.48c.13-.28.3-.79.39-.77,1.58.22,2.51-1.83,4.19-1.21a18.24,18.24,0,0,1,3.84-2c1.4-.66,2.71-2.11,4.64-1.56.31.09.86-.65,1.38-1.07h3.43l1.22,1.14h2.3l.87.86c1.23.61,2.56.25,3.87.23,1.53-2.68,2.28-5.78,4.5-8,1.65.37,2.88-.54,4.2-1.21,3.69-1.88,7.4-3.74,11.52-5.81h1.79l1.27-1.18h3.49l1.05,1.05,2.53.19,1.65,1.66v6.58l1.69,3.24c1.13.54,1.69-.36,2.38-1h2.27l1.29-1.2H188c1.29-.67,2.47-1,3.17-1.71,1-1.05,2.22-.26,3.26-.8.49-.52,1.33-1,1.48-1.66.45-2,1.91-3.5,2.38-5.44a2.76,2.76,0,0,0,0-.87l4.92-4.9,3.11-1.32v-4.85l-1-1.34v-3.35l-1.1-1.1V703.7l-1.2-1.38v-4.55l-1.21-1.29v-1.27l1.63-.62,4.72,9.35a6.56,6.56,0,0,1,2.23,1c.58.51,1.89.12,2.65.54s1.34,1.37,2.64.57v-3.68l3.44-1.77h5.44c1.47-1.52,3-3,4.77-4.89.36.73.7,1.39,1,2l.62-.36a21.15,21.15,0,0,0,0,3.38c.18,1.05,1.31,1.7,1.21,3-.06.78.91,1.58,1,2.43.16,1.14-.05,2.33,1.16,3,0,1.31.39,2.66-.33,4h-9.92l-5.87,3c-.59.91.51,2.62-1.22,3.43v7L216,727.84c-1.33,1.34-2.67.18-3.64,1.23a7.74,7.74,0,0,1-2.35,1.24V745.5c1.35,1.08,1.19,3.23,2.89,4.06a19.81,19.81,0,0,0,1.87,3.88c.7,1.44,1.6,2.86,2.16,4.36.3.79,1.08,1.11,1.21,1.82a4.74,4.74,0,0,1-.3,1.62c-2.82-1.45-3.2-4.76-5.52-6.42s-2.6-5-5.38-6.22L204.85,753l-1.7-.11c-.09-1-.17-1.93-.24-2.79l-1.08-1.27v-3.32l3.48-2.65V739.7l-1.12-1.22c-.16-.94.28-1.94-.29-2.68l-9.48,9.48-3.15-1.56a4.26,4.26,0,0,0-1,.53c-1.4,1.35-2.76,2.74-4.16,4.14H159.34c-.44.4-.86.79-1.29,1.2h-8.14L144.55,755c-3.78,1.4-5.62,5.07-8.73,7.44h-1l-6.82,7h-1.44c-.54.68-1.41,1.34-1.61,2.17a3.76,3.76,0,0,1-1.18,1.85,4.06,4.06,0,0,0-1.35,2.39c-.11.73-1,1.39-1.2,2.41-.11.63-1.1,1-1.54,1.68s-.68,1.77-1.3,2.34a26.48,26.48,0,0,1-3.63,2.34h-4.46a23.78,23.78,0,0,1-2.67,2.62c-1.3,1-1.27,2.68-2.44,3.69s-1.94,1.91-2.91,2.88c-1.21.33-2.75-.28-3.57,1.27H95.37l-5.55,5.54v.71L71.55,819.57c-.81-.18-1.85.43-2.66-.52l1.1-1.24v-3.35c1.19-1.75,3.45-2.6,3.69-5Zm-8-401.71V396.3l1.65-.23,1.71,3.32v3.07c-1.62,1.06-1,4.36-4,4.12C68.76,405.24,68.76,405.24,70.12,403.46ZM67.65,155.18v2.24l1.25,1.38-1.32.45L58.37,150l.13-.87c.15-.14.28-.4.42-.4,1.94,0,3.88,0,5.83,0,.67,1.67,2.07,3.09,1.74,5.15ZM55,116.19h8.77l1,2.15c-.74.67-2.18-.37-4,.55l-.74.69c-2.7,0-5.42,0-8.14,0-.14,0-.27-.26-.61-.61Zm-7.14,55.29c1-.95,2.26-.77,4,.57h2.26l1.29,1.2h2.31c1,.71.43,1.77.58,2.61l-4.06,3.86-4.06-4.06v0h0v0h0c0-.11,0-.34-.05-.6l-2.31-2.43Zm-13.38-4.16a10.6,10.6,0,0,0,.9-2.1h2.71c.88,1.2.23,2.59.43,3.9l1.16,1.24V175c.27.27.54.55.87.87.61,1.2.1,2.56.35,3.85.27.27.54.55,1.11,1.11,0,1.22,0,2.73,0,4.24,0,.32-.32.63-.54,1-1.39-2.73-2.7-5.44-4.12-8.09s-2.12-5.87-5.36-8.13A30.81,30.81,0,0,0,34.47,167.32ZM28,673.19l1.55-1.62c1.41.58,2,2,3.09,2.69v2c-.37,1.16-1.45,1.71-2.16,2.58l-.67,2L28,679Z"/><path class="cls-1" d="M164.39,462.11a10.34,10.34,0,0,0-1.12-.86C163.46,462,163.37,462.9,164.39,462.11Z"/><path class="cls-1" d="M213.46,100.57a9.41,9.41,0,0,0-5.5-4c-.81.81-2,1.5-2.36,2.49a5.33,5.33,0,0,1-1.73,2.73c-1.18.8-.69,2.51-2,3.26a14.8,14.8,0,0,0-2.33,1.91v3.95c1.27,1.26,2.48,2.51,3.74,3.7.23.22.67.23,1.36.45l8.82-8.82Z"/><path class="cls-1" d="M159.83,59.5c0,2.21,0,4.53,0,6.84,0,.16.18.31.38.6h12c.27-.26.54-.54.92-.92h8.4a20.15,20.15,0,0,1,2.8,5.39c.44,1.56,1.46,3,1.4,4.66,1.74,1,.09,3.54,2.06,4.4-.8,2,1.75,3.34,1.2,5.34A6.65,6.65,0,0,1,190.32,90c0,.25.6.5.77.83.49,1,.9,2,1.41,3.1v2.67l2.47,4.34c.08.32-.54,1.35.25,2.17l1.08.19c1.9-.6,1.8-2.7,2.94-3.9s1.88-2.74,2.95-4,2.45-2.49,3.62-3.66c.65.36,1.28.7,1.9,1.06,1.28.75,2.56,1.52,4.14,1.27,1.14,1.32,2.86,1.54,4.32,2.24A4.94,4.94,0,0,1,217,97v4.57l1,1v4.94l-8.26,8.26a10.58,10.58,0,0,0-.81.83c-.1.13-.09.35-.18.77.37.86-.32,2.06.47,3.34h5.55l2.25,1.4,2-1.32h3.1l1.3-1.13h3.38l1.29-1.2h3.47c1.08.73,1.5,2.33,3.12,2.33,1.69,1.76,4.26,2.34,5.81,4.27.37.46.56.53.88-.11v-3.7c-.4-.4-.68-.67-1-1V113.3l-1.19-1.3c.06-1.08-.21-2.14.72-3.19a5.17,5.17,0,0,0,1.47-3.38c-.15-1.57,1.11-2.3,1.35-3.6a8.63,8.63,0,0,1,2.6-5.32c1.06-1.12,2.67-2.09,3-3.4A5.66,5.66,0,0,1,250.74,90c1.28-1,.95-2.93,2.42-3.7,0-1.17,0-2.34,0-3.48l1.2-1.29V77l1.21-1.38c-.5-1.56-1.6-2.93-1.45-4.67-1.79-.95-.12-3.52-2.1-4.39V64.26L250.83,63V60.69l-1.2-1.3V57.18L248.57,56V22.09l1-1V2.32a4.88,4.88,0,0,0-2.9-1.95,1.13,1.13,0,0,1-.58-.37H154.36c.12.25.24.49.38.73.48.78,1.64,1.09,1.61,2.51l-1.24,1.67V9.39c-1.57,1.57-3.19,3-4.57,4.62s-4.16,1.94-5.22,4.09h-3.55l-1.33,1.2H137.1l-1.42,1.2h-3.35c-.91.91-2.09,1.6-2.47,2.6a11,11,0,0,1-2.11,3.22,15.49,15.49,0,0,0-1.54,2.88L129.53,31h4.18l.95.95c2.46.27,5-.11,7.19.19l1.07,1.07c1.34,0,2.69,0,4.05,0a3.14,3.14,0,0,1,1,.37c.3.26.58.52.88.8h5.31l5.63,5.63c-.37,1,1.1,1.32,1.1,1.37v17Zm4-19.33a12.37,12.37,0,0,1,1.57,1.61c.28.43.18,1.12.47,1.54.43.63,1.16,1.06,1.59,1.68s.44,1.43.88,2a3.15,3.15,0,0,1,.89,2c0,.44.92.79,1.05,1.28a8.61,8.61,0,0,1,.05,2.27l-1.81,1.81L167,52.37c.21-2.13-1.67-3.68-2.51-6.73V44.4l-1.2-1.3C163.47,42.21,163,41.2,163.83,40.17Z"/><path class="cls-1" d="M119,0h-1.16a6.66,6.66,0,0,0,.53.62C118.61.4,118.82.2,119,0Z"/><path class="cls-1" d="M258.45.58c.49.85,1.47,1,2.35,1.35s1.64,1.51,2.17,2h4c.64-1.12,1.28-2.23,1.9-3.34a2.15,2.15,0,0,1,.56-.63H257.92A1.86,1.86,0,0,1,258.45.58Z"/><path class="cls-1" d="M213.66,302.34c1.25.84,2.09,2.07,3.47,2.87,1.79,1,3.89.88,5.59,2.12a2.6,2.6,0,0,0,2,.09l4-2.8v-6.08l2.2-2.2v-5.79l1.2-1.3v-6.9l1.2-1.34v-3.4l1-1v-4.87c-.79-1.14-2.43-1.59-2.21-3.28-1.3-.91-1-2.84-2.36-3.71v-3.41l-1.2-1.34v-5.73l-1-1v-13l1.17-1.48v-9.12l.94-.94c.3-2.07-.12-4.19.23-6.07l1-1v-6.94l1.2-1.3v-4.23l4.64-9c.39-1.09-.4-2.29.31-3.35L238,196v-3.45l1.2-1.3V189l1.33-1.47c-.9-1.42.26-2.37.87-3.48s-.61-2.7.7-3.82,0-3,.95-4.53c1.45-.45.59-1.84.82-3l1.13-1.26v-3.71c1.92,0,.84-2.07,2-3.06,1-.86,0-3,1.56-4a4.44,4.44,0,0,1,1.05-3.42V144.52l-1.84-1.73c-2.3,0-4.61,0-6.92,0-.14,0-.28-.26-.44-.42V141.1l2-1.83c.45-.29,1.85.9,2.56-.62-2.95-1.91-4-5.42-6.61-7.72-2.76-2.43-5.25-5.18-7.89-7.82h-5.81c-1.77,1.56-4.27,1.93-6,3.4h-9.42c-1-2-3.58-2-4.81-3.78s-3.53-2.45-3.87-5c-1.36-1.36-3-2.77-4.34-4.41s-3.65-2.35-3.75-4.85c-1.72-1.26-2.33-3.3-3.57-5.19v-3l-1-1c-.06-1.3-.12-2.61-.17-3.67-.52-.51-.79-.79-1.07-1.07,0-.77.32-1.94-.06-2.25-1.26-1-1-2.82-2.28-3.77.72-1.7-.89-2.75-1.21-4.17A5.87,5.87,0,0,0,182,82.56V78.29L180.91,77c.22-2.92-2.24-4.87-2.77-7.58-3.72,2.44-8.07,3.48-11.34,6.35v2.35l-1.13,1.3v6.46c-1,1.76-2,3-2.24,4.32-.26,1.75-2.43,2-2.42,3.69,0,1.18-1.19,1.43-1.65,2.24a23.45,23.45,0,0,1-1.27,2.38c-.77,1-.76,2.53-2,3.25s-.68,2.59-2.06,3.22q0,3.49,0,7c1.41.61.9,2.38,2,3.26.92.72-.14,2.14.81,3.17a17.27,17.27,0,0,1,2,3.57v3l1,1c0,2.46,0,5,0,7.49a4.27,4.27,0,0,1-.34,1l-.81.79v5.81l-1,1.14,2.75,3h1.22a55.64,55.64,0,0,1,4.11,4.17c1.23,1.53,3.3,1.74,4.55,3.23.53.64,1.62.77,2.33,1.3a6,6,0,0,1,2,2.07,35.07,35.07,0,0,0,2,3.25c1.17,2,2.58,3.94,3,6.31,0,.16.23.29.35.43,1,.83,1.67,2.12,3,2.55h2.22a7.87,7.87,0,0,1,1.3-1.54,9.82,9.82,0,0,1,2.38-1.25c2.73-1,4.57-3.63,7.57-4.29.74-.16,1.38-1.23,1.85-2,.73-1.23,1-2.92,2-3.78,1.38-1.2,1.34-3.11,2.66-4.14v-3.2l-1.27-2,1.44-2.27V138.6c7.8-.66,17.72-.59,18.65.33l-1.65,3.79-2.54,2.53h-9.22a9,9,0,0,0-1.16,0c-.16,0-.3.2-.45.31L205.31,147v6.45L204,156.06a5,5,0,0,1-2.17,2.61c-1.11.69-.88,2-1.64,2.83s-1.54,2.06-2.52,2.33c-2.41.66-4.12,2.31-6.12,3.56a23.9,23.9,0,0,1-3.28,1.47c-.78,1.76-1.82,3.32-1.8,5.21-2.54,2.28.13,4.05.7,6,.23.76,1.41,1.24,1.92,1.65v3.48c1.28,2.46,2.37,4.54,3.45,6.63-.77,1.71,1.46,2.59,1.17,4.18,1.36.84,1.09,2.67,2.2,3.62l-1.12,1.34v11.14l-1.29,2.23c.52.61.89,1,1.32,1.56v3.34l1.21,1.33v3.42l1.2,1.3v3.41c.41.46.79.89,1.2,1.33v2.56l6.9,6.9c-.39,1.09,1,1.43,1.3,2.66v7.55l1.2,1.53v5.61l1,.95c.27,2.07-.12,4.19.22,6.05l1,1v16.31l-1.14,1.24v8.09c.41.48,1,.87,1.11,1.36.39,1.62,1.09,2.78,3,2.76.62,1.4,2.41.89,3.26,2a2.76,2.76,0,0,1,.55,3Zm-16.25-84.93c-.62-1.68.06-3.41-.39-5.22l-.67-.67a3.23,3.23,0,0,1-.33-1c0-2.49,0-5,0-7.48,1.65-1.6,1.65-1.6,3.17-1.53.11.14.32.29.32.44q0,6.9,0,13.8C198.89,216.34,198.49,217.19,197.41,217.41Z"/></svg>