<svg id="Layer_1" data-name="Layer 1" xmlns="http://www.w3.org/2000/svg" viewBox="0 0 33.92 15.11"><defs><style>.cls-1{fill:#78a1bb;}</style></defs><title>menu</title><path class="cls-1" d="M29.56,4.15a4.26,4.26,0,0,1-3.1-1.4,2.72,2.72,0,0,0-3.9,0,4.1,4.1,0,0,1-3.1,1.4,4.26,4.26,0,0,1-3.1-1.4,2.72,2.72,0,0,0-3.9,0,4.13,4.13,0,0,1-6.2,0,2.72,2.72,0,0,0-3.9,0,.91.91,0,0,1-1.1.1.77.77,0,0,1-.1-1A4.1,4.1,0,0,1,4.26.45a4.26,4.26,0,0,1,3.1,1.4,2.72,2.72,0,0,0,3.9,0,4.1,4.1,0,0,1,3.1-1.4,4.26,4.26,0,0,1,3.1,1.4,2.72,2.72,0,0,0,3.9,0,4.13,4.13,0,0,1,6.2,0,2.72,2.72,0,0,0,3.9,0,.91.91,0,0,1,1.1-.1.91.91,0,0,1,.1,1.1A4.32,4.32,0,0,1,29.56,4.15Z"/><path class="cls-1" d="M29.56,9.45a4.26,4.26,0,0,1-3.1-1.4,2.72,2.72,0,0,0-3.9,0,4.1,4.1,0,0,1-3.1,1.4,4.26,4.26,0,0,1-3.1-1.4,2.72,2.72,0,0,0-3.9,0,4.45,4.45,0,0,1-3,1.4,4.26,4.26,0,0,1-3.1-1.4,2.72,2.72,0,0,0-3.9,0,.78.78,0,0,1-1.1,0A.91.91,0,0,1,1.26,7a4.1,4.1,0,0,1,3.1-1.4A4.26,4.26,0,0,1,7.46,7a2.72,2.72,0,0,0,3.9,0,4.1,4.1,0,0,1,3.1-1.4A4.26,4.26,0,0,1,17.56,7a2.72,2.72,0,0,0,3.9,0,4.13,4.13,0,0,1,6.2,0,2.72,2.72,0,0,0,3.9,0,.91.91,0,0,1,1.1-.1.91.91,0,0,1,.1,1.1A4.55,4.55,0,0,1,29.56,9.45Z"/><path class="cls-1" d="M29.56,14.65a4.26,4.26,0,0,1-3.1-1.4,2.72,2.72,0,0,0-3.9,0,4.1,4.1,0,0,1-3.1,1.4,4.26,4.26,0,0,1-3.1-1.4,2.72,2.72,0,0,0-3.9,0,4.05,4.05,0,0,1-3,1.4,4.26,4.26,0,0,1-3.1-1.4,2.72,2.72,0,0,0-3.9,0,.91.91,0,0,1-1.1.1.91.91,0,0,1-.1-1.1,4.1,4.1,0,0,1,3.1-1.4,4.26,4.26,0,0,1,3.1,1.4,2.72,2.72,0,0,0,3.9,0,4.1,4.1,0,0,1,3.1-1.4,4.26,4.26,0,0,1,3.1,1.4,2.72,2.72,0,0,0,3.9,0,4.13,4.13,0,0,1,6.2,0,2.72,2.72,0,0,0,3.9,0,.91.91,0,0,1,1.1-.1.91.91,0,0,1,.1,1.1A4.85,4.85,0,0,1,29.56,14.65Z"/></svg>