<svg xmlns="http://www.w3.org/2000/svg" viewBox="0 0 70 70"><defs><style>.cls-1{fill:#c6d8d3;stroke:#c6d8d3;stroke-miterlimit:10;stroke-width:0.5px;}</style></defs><title>Low_tide</title><g id="Low_tide"><path class="cls-1" d="M10.56,40.56a.46.46,0,0,0,.14-.66.47.47,0,0,0-.4-.22.5.5,0,0,0-.26.08.48.48,0,0,0-.14.66A.46.46,0,0,0,10.56,40.56Z"/><path class="cls-1" d="M8.58,41.5a.49.49,0,0,0-.14-1l-.14,0a.5.5,0,0,0-.32.61A.48.48,0,0,0,8.58,41.5Z"/><path class="cls-1" d="M12.24,39.19a.48.48,0,0,0,0-.68.46.46,0,0,0-.34-.15.47.47,0,0,0-.33.14h0a.48.48,0,0,0,0,.68A.49.49,0,0,0,12.24,39.19Z"/><path class="cls-1" d="M63.63,34.26H35.58c-.31-.46-.63-.92-.94-1.4-2.43-3.64-4.93-7.41-9.72-7.41l-.7,0v0C20,26,17,30.25,14.83,34a.62.62,0,0,0-.08.24H6.63v.6H34.28c1.52,2.24,3.17,4.37,5.45,5.53A4.55,4.55,0,0,1,40.21,39,13.13,13.13,0,0,1,36,34.86H51.94a14.7,14.7,0,0,1-3.72,3.84,4.29,4.29,0,0,1,.6,1.32,17,17,0,0,0,4.9-5.16h9.91Zm-47.29,0h0c2.09-3.52,4.92-7.34,8.58-7.34h.4c3.79.21,5.91,3.4,8.16,6.77.13.19.26.38.38.58Z"/><path class="cls-1" d="M48,41.33a3.39,3.39,0,1,0-3.39,3.39A3.39,3.39,0,0,0,48,41.33Z"/><path class="cls-1" d="M14.91,36a.48.48,0,0,0-.12-.67.47.47,0,0,0-.28-.09.47.47,0,0,0-.39.2.5.5,0,0,0,.11.68A.49.49,0,0,0,14.91,36Z"/><path class="cls-1" d="M6.74,41.67a.43.43,0,0,0,.15-.34A.45.45,0,0,0,6.74,41a.45.45,0,0,0-.33-.14.48.48,0,0,0-.34.14.44.44,0,0,0-.14.34.46.46,0,0,0,.14.35A.49.49,0,0,0,6.74,41.67Z"/><path class="cls-1" d="M13.28,36.85a.48.48,0,1,0,.37.78.47.47,0,0,0-.07-.67A.45.45,0,0,0,13.28,36.85Z"/><path class="cls-1" d="M55.68,30.06a.51.51,0,1,0,.38-.17A.46.46,0,0,0,55.68,30.06Z"/><path class="cls-1" d="M54.42,31.74a.48.48,0,1,0,.79.55.47.47,0,0,0-.12-.67.44.44,0,0,0-.27-.09A.52.52,0,0,0,54.42,31.74Z"/><path class="cls-1" d="M62.58,26a.54.54,0,0,0-.14.34.49.49,0,0,0,1,0,.54.54,0,0,0-.14-.34.49.49,0,0,0-.34-.14A.52.52,0,0,0,62.58,26Z"/><path class="cls-1" d="M53.3,33.37a.49.49,0,0,0-.14.34.48.48,0,0,0,.14.34.5.5,0,0,0,.68,0,.48.48,0,0,0-.68-.68Z"/><path class="cls-1" d="M60.89,26.18a.36.36,0,0,0-.14,0,.47.47,0,0,0-.32.6.48.48,0,0,0,.6.32.48.48,0,0,0,.32-.6A.47.47,0,0,0,60.89,26.18Z"/><path class="cls-1" d="M58.77,27.13a.47.47,0,1,0,.26-.08A.5.5,0,0,0,58.77,27.13Z"/><path class="cls-1" d="M57.58,28.49a.54.54,0,0,0-.35-.14.47.47,0,0,0-.34.14.48.48,0,0,0,.68.68h0A.5.5,0,0,0,57.58,28.49Z"/></g></svg>