<svg xmlns="http://www.w3.org/2000/svg" viewBox="0 0 70 70"><defs><style>.cls-1,.cls-2{fill:#c6d8d3;stroke:#c6d8d3;stroke-miterlimit:10;}.cls-1{stroke-width:0.5px;}</style></defs><title>Swell_period</title><g id="Swell_period"><path class="cls-1" d="M41.15,36.12a.33.33,0,0,0,.33-.33,3.4,3.4,0,0,0-4.88-2.91,3.16,3.16,0,0,0-1.87,2.91.33.33,0,0,0,.66,0,2.73,2.73,0,0,1,3.89-2.47,2.62,2.62,0,0,1,1.54,2.46h0A.34.34,0,0,0,41.15,36.12Z"/><path class="cls-1" d="M51.32,39a.34.34,0,0,0-.34.34,1.9,1.9,0,0,1-2,1.82,2,2,0,0,1-2-1.82.34.34,0,1,0-.67,0v0a1.82,1.82,0,0,1-1.87,1.78,1.91,1.91,0,0,1-2-1.82.34.34,0,1,0-.67,0,2,2,0,0,1-3.91,0,.34.34,0,1,0-.67,0,2,2,0,0,1-1.85,1.85,2,2,0,0,1-2.07-1.85.34.34,0,1,0-.67,0,2,2,0,0,1-3.92,0,.34.34,0,1,0-.67,0,1.89,1.89,0,0,1-1.95,1.82h0a1.86,1.86,0,0,1-1.9-1.82.34.34,0,1,0-.67,0,1.94,1.94,0,0,1-2,1.82,1.9,1.9,0,0,1-2-1.82.34.34,0,1,0-.67,0,2.57,2.57,0,0,0,2.63,2.51,2.7,2.7,0,0,0,2.33-1.3,2.56,2.56,0,0,0,2.26,1.3,2.62,2.62,0,0,0,2.29-1.31,2.65,2.65,0,0,0,4.59,0,2.59,2.59,0,0,0,.94,1,2.66,2.66,0,0,0,3.64-1,2.76,2.76,0,0,0,.94,1,2.67,2.67,0,0,0,3.65-1,2.61,2.61,0,0,0,2.29,1.31,2.49,2.49,0,0,0,2.23-1.31A2.77,2.77,0,0,0,49,41.85a2.57,2.57,0,0,0,2.61-2.51A.34.34,0,0,0,51.32,39Z"/><path class="cls-1" d="M31.14,30.13h0a.34.34,0,1,0,.45.5,7,7,0,0,1,11.68,5.22h0a.34.34,0,0,0,.67,0,7.67,7.67,0,0,0-12.79-5.72Z"/><path class="cls-1" d="M50.72,35.82a.34.34,0,0,0,.67,0,7.69,7.69,0,0,0-7.68-7.68.34.34,0,0,0,0,.67A7,7,0,0,1,50.72,35.82Z"/><g id="Clock_ticks" data-name="Clock ticks"><line class="cls-2" x1="35" y1="6.7" x2="35" y2="12.16"/><line class="cls-2" x1="35" y1="57.84" x2="35" y2="63.3"/><line class="cls-2" x1="6.7" y1="35" x2="12.16" y2="35"/><line class="cls-2" x1="57.84" y1="35" x2="63.3" y2="35"/><line class="cls-2" x1="55.01" y1="14.99" x2="51.15" y2="18.85"/><line class="cls-2" x1="18.85" y1="51.15" x2="14.99" y2="55.01"/><line class="cls-2" x1="14.99" y1="14.99" x2="18.85" y2="18.85"/><line class="cls-2" x1="51.15" y1="51.15" x2="55.01" y2="55.01"/></g></g></svg>