<?xml version="1.0" standalone="no"?>
<!DOCTYPE svg PUBLIC "-//W3C//DTD SVG 20010904//EN"
 "http://www.w3.org/TR/2001/REC-SVG-20010904/DTD/svg10.dtd">
<svg version="1.0" xmlns="http://www.w3.org/2000/svg"
 width="1024.000000pt" height="1024.000000pt" viewBox="0 0 1024.000000 1024.000000"
 preserveAspectRatio="xMidYMid meet">
<metadata>
Created by potrace 1.11, written by Peter Selinger 2001-2013
</metadata>
<g transform="translate(0.000000,1024.000000) scale(0.100000,-0.100000)"
fill="#000000" stroke="none">
<path d="M0 5120 l0 -5120 5120 0 5120 0 0 5120 0 5120 -5120 0 -5120 0 0
-5120z m5380 4140 c773 -52 1497 -305 2111 -736 391 -274 759 -642 1033 -1033
254 -362 456 -786 582 -1220 215 -741 215 -1561 0 -2302 -126 -434 -328 -858
-582 -1220 -274 -391 -642 -759 -1033 -1033 -456 -320 -999 -552 -1546 -661
-558 -111 -1092 -111 -1650 0 -547 109 -1090 341 -1546 661 -391 274 -759 642
-1033 1033 -624 889 -870 2006 -681 3090 196 1121 864 2132 1821 2754 624 405
1269 616 2054 670 106 8 336 6 470 -3z"/>
<path d="M4840 8944 c-560 -50 -1018 -181 -1487 -424 -697 -361 -1272 -936
-1633 -1633 -216 -416 -346 -836 -407 -1312 -25 -199 -25 -711 0 -910 112
-872 487 -1644 1098 -2254 610 -610 1382 -986 2254 -1098 199 -25 711 -25 910
0 872 112 1644 488 2254 1098 610 610 986 1382 1098 2254 25 199 25 711 0 910
-112 872 -488 1644 -1098 2254 -601 601 -1362 977 -2212 1092 -117 16 -219 21
-442 24 -159 1 -310 1 -335 -1z m1285 -3119 c396 -63 796 -213 1166 -439 55
-33 137 -66 295 -120 401 -134 709 -254 1054 -407 l175 -78 -2 -46 c-1 -26 -4
-49 -6 -52 -3 -3 -151 56 -329 131 -288 121 -690 280 -758 301 -14 4 29 -34
95 -85 275 -213 507 -421 757 -678 l156 -161 -13 -52 c-8 -28 -16 -53 -18 -56
-3 -2 -31 24 -63 59 -373 401 -754 730 -1169 1010 -140 94 -140 94 -271 126
-656 159 -1158 111 -1959 -188 -217 -81 -641 -259 -922 -387 l-152 -69 362
-271 c199 -149 406 -303 459 -342 l97 -72 66 41 c333 204 683 331 1045 381
112 15 419 15 545 0 510 -63 1071 -273 1671 -629 l102 -60 31 20 c17 11 31 16
31 12 0 -4 -16 -43 -36 -85 -35 -74 -39 -78 -108 -117 -123 -71 -356 -179
-488 -226 -202 -73 -383 -119 -633 -161 l-40 -7 90 -27 c102 -31 301 -109 390
-153 76 -38 263 -147 269 -157 6 -9 -44 -81 -56 -81 -5 0 -48 23 -94 50 -257
152 -515 251 -739 285 -374 56 -715 -61 -1140 -392 -123 -95 -539 -443 -543
-454 -11 -27 358 -171 562 -219 246 -57 581 -72 816 -36 117 17 287 56 363 82
l42 14 -25 -21 c-14 -12 -77 -52 -140 -89 -110 -66 -119 -69 -220 -84 -442
-64 -921 15 -1369 225 l-104 49 -31 -25 c-317 -256 -881 -633 -931 -621 -11 2
-46 10 -78 16 l-58 12 128 72 c162 92 344 209 499 319 142 100 367 277 361
283 -2 3 -67 41 -143 85 -137 80 -320 201 -830 547 -143 97 -276 185 -295 195
l-34 19 -85 -53 c-113 -70 -358 -187 -495 -237 -265 -96 -624 -162 -885 -162
l-84 0 -48 47 c-26 26 -48 50 -48 54 0 3 89 9 198 12 108 4 243 13 300 22 353
51 705 178 986 352 l49 31 -88 51 c-249 148 -539 270 -795 337 -323 84 -714
96 -1050 33 -58 -11 -112 -22 -121 -25 -13 -3 -25 12 -48 62 -17 37 -30 69
-27 71 2 2 336 157 742 344 407 187 892 411 1079 499 187 87 357 165 378 173
20 9 37 18 37 20 0 6 -256 173 -321 211 l-46 26 -174 -118 c-96 -65 -264 -183
-374 -262 -254 -181 -588 -403 -775 -515 -133 -79 -516 -275 -567 -290 -18 -5
-24 1 -38 40 -10 25 -16 47 -14 49 2 1 66 31 141 65 323 148 691 380 1343 846
132 94 267 189 299 211 l59 39 -149 71 c-622 299 -1230 369 -1867 215 l-77
-18 0 52 0 53 47 11 c228 58 438 83 688 83 452 -1 835 -97 1301 -328 l151 -75
169 109 c695 447 1215 660 1769 722 118 13 492 4 610 -15z"/>
<path d="M5577 5729 c-543 -39 -1106 -262 -1795 -712 l-113 -73 52 -28 c28
-16 112 -69 187 -118 74 -49 141 -92 147 -94 7 -3 158 60 336 139 873 388
1359 551 1814 608 145 19 483 16 632 -4 67 -9 125 -17 130 -17 18 1 -214 102
-329 144 -242 88 -468 136 -723 155 -153 12 -177 12 -338 0z"/>
<path d="M3710 4414 c-184 -85 -488 -226 -675 -313 -187 -87 -496 -229 -687
-316 -191 -88 -346 -160 -345 -161 2 -2 34 2 72 8 99 16 490 16 600 0 394 -57
757 -189 1163 -425 l113 -66 112 76 c62 42 249 177 417 301 168 124 350 257
405 294 55 38 100 71 100 73 0 3 -85 69 -190 148 -104 78 -257 193 -339 255
-136 103 -397 283 -407 281 -2 0 -155 -70 -339 -155z"/>
<path d="M6230 4269 c-240 -28 -505 -110 -755 -233 -93 -47 -197 -101 -229
-122 l-59 -37 26 -21 c14 -12 85 -58 157 -104 495 -315 866 -467 1300 -534
130 -20 507 -17 650 6 313 49 651 163 974 329 137 71 140 53 -28 151 -542 315
-1065 507 -1526 561 -134 16 -388 18 -510 4z"/>
<path d="M4954 3742 c-71 -49 -246 -176 -389 -283 -144 -107 -318 -232 -387
-279 -70 -47 -126 -88 -125 -91 1 -4 76 -56 167 -116 91 -61 219 -150 285
-198 243 -179 559 -386 767 -503 l56 -32 139 118 c365 313 692 556 881 655 41
22 119 56 174 77 110 41 111 39 -22 65 -370 73 -801 271 -1266 581 -78 52
-144 94 -146 94 -3 0 -63 -40 -134 -88z"/>
</g>
</svg>
