<svg xmlns="http://www.w3.org/2000/svg" viewBox="0 0 70 70"><defs><style>.cls-1{fill:#c6d8d3;stroke:#c6d8d3;stroke-miterlimit:10;stroke-width:0.5px;}</style></defs><title>High_tide</title><g id="High_tide"><path class="cls-1" d="M11.23,42.87A.47.47,0,1,0,11,43,.5.5,0,0,0,11.23,42.87Z"/><path class="cls-1" d="M12.42,41.51a.54.54,0,0,0,.35.14.47.47,0,0,0,.34-.14.48.48,0,0,0-.68-.68h0A.5.5,0,0,0,12.42,41.51Z"/><path class="cls-1" d="M15.58,38.26a.48.48,0,1,0-.79-.55.47.47,0,0,0,.12.67.44.44,0,0,0,.27.09A.52.52,0,0,0,15.58,38.26Z"/><path class="cls-1" d="M14.32,39.94a.51.51,0,1,0-.38.17A.46.46,0,0,0,14.32,39.94Z"/><path class="cls-1" d="M63.37,35.14H35.72c-1.52-2.24-3.17-4.37-5.45-5.53A4.55,4.55,0,0,1,29.79,31,13.13,13.13,0,0,1,34,35.14H18.06a14.7,14.7,0,0,1,3.72-3.84,4.29,4.29,0,0,1-.6-1.32,17,17,0,0,0-4.9,5.16H6.37v.6H34.42c.31.46.63.92.94,1.4,2.43,3.64,4.93,7.41,9.72,7.41l.7,0v0C50,44,53,39.75,55.17,36a.62.62,0,0,0,.08-.24h8.12Zm-9.71.6c-2.09,3.52-4.92,7.34-8.58,7.34h-.4c-3.79-.21-5.91-3.4-8.16-6.77-.13-.19-.26-.38-.38-.58Z"/><path class="cls-1" d="M7.42,44a.54.54,0,0,0,.14-.34.49.49,0,0,0-1,0,.54.54,0,0,0,.14.34.49.49,0,0,0,.34.14A.52.52,0,0,0,7.42,44Z"/><path class="cls-1" d="M9.11,43.82a.36.36,0,0,0,.14,0,.47.47,0,0,0,.32-.6.48.48,0,0,0-.6-.32.48.48,0,0,0-.32.6A.47.47,0,0,0,9.11,43.82Z"/><path class="cls-1" d="M56.72,33.15a.48.48,0,1,0-.37-.78.47.47,0,0,0,.07.67A.45.45,0,0,0,56.72,33.15Z"/><path class="cls-1" d="M59.44,29.44a.46.46,0,0,0-.14.66.47.47,0,0,0,.4.22.5.5,0,0,0,.26-.08.48.48,0,0,0,.14-.66A.46.46,0,0,0,59.44,29.44Z"/><path class="cls-1" d="M16.7,36.63a.49.49,0,0,0,.14-.34A.48.48,0,0,0,16.7,36,.5.5,0,0,0,16,36a.48.48,0,0,0,.68.68Z"/><path class="cls-1" d="M61.42,28.5a.49.49,0,0,0,.14.95l.14,0a.5.5,0,0,0,.32-.61A.48.48,0,0,0,61.42,28.5Z"/><path class="cls-1" d="M57.76,30.81a.48.48,0,0,0,0,.68.46.46,0,0,0,.34.15.47.47,0,0,0,.33-.14h0a.48.48,0,0,0,0-.68A.49.49,0,0,0,57.76,30.81Z"/><path class="cls-1" d="M22,28.67a3.39,3.39,0,1,0,3.39-3.39A3.39,3.39,0,0,0,22,28.67Z"/><path class="cls-1" d="M63.26,28.33a.43.43,0,0,0-.15.34.45.45,0,0,0,.15.34.45.45,0,0,0,.33.14.48.48,0,0,0,.34-.14.44.44,0,0,0,.14-.34.46.46,0,0,0-.14-.35A.49.49,0,0,0,63.26,28.33Z"/><path class="cls-1" d="M55.09,34a.48.48,0,0,0,.12.67.47.47,0,0,0,.28.09.47.47,0,0,0,.39-.2.5.5,0,0,0-.11-.68A.49.49,0,0,0,55.09,34Z"/></g></svg>