<svg xmlns="http://www.w3.org/2000/svg" viewBox="0 0 70 70"><defs><style>.cls-1,.cls-3,.cls-4{fill:#283044;}.cls-2{fill:#78a1bb;}.cls-3,.cls-4{stroke:#283044;stroke-miterlimit:10;}.cls-3{stroke-width:0.5px;}.cls-4{stroke-width:0.5px;}</style></defs><title>Swell_period</title><g id="Swell_period"><circle class="cls-1" cx="35" cy="35" r="30"/><path class="cls-2" d="M35,5A30,30,0,1,0,65,35,30,30,0,0,0,35,5ZM31.14,30.13a7.67,7.67,0,0,1,12.79,5.72.34.34,0,0,1-.67,0h0a7,7,0,0,0-11.68-5.22.34.34,0,1,1-.45-.5h0Zm10.34,5.66a.33.33,0,0,1-.33.33.34.34,0,0,1-.33-.33h0a2.62,2.62,0,0,0-1.54-2.46,2.73,2.73,0,0,0-3.89,2.47h0a.33.33,0,0,1-.66,0h0a3.16,3.16,0,0,1,1.87-2.91A3.4,3.4,0,0,1,41.48,35.79ZM49,41.85a2.77,2.77,0,0,1-2.36-1.31,2.49,2.49,0,0,1-2.23,1.31,2.61,2.61,0,0,1-2.29-1.31,2.67,2.67,0,0,1-3.65,1,2.76,2.76,0,0,1-.94-1,2.66,2.66,0,0,1-3.64,1,2.59,2.59,0,0,1-.94-1,2.65,2.65,0,0,1-4.59,0,2.62,2.62,0,0,1-2.29,1.31,2.56,2.56,0,0,1-2.26-1.3,2.7,2.7,0,0,1-2.33,1.3,2.57,2.57,0,0,1-2.63-2.51.34.34,0,1,1,.67,0h0a1.9,1.9,0,0,0,2,1.82,1.94,1.94,0,0,0,2-1.82.34.34,0,1,1,.67,0h0a1.86,1.86,0,0,0,1.9,1.82h0a1.89,1.89,0,0,0,1.95-1.82.34.34,0,1,1,.67,0,2,2,0,0,0,3.92,0,.34.34,0,1,1,.67,0,2,2,0,0,0,2.07,1.85,2,2,0,0,0,1.85-1.85.34.34,0,1,1,.67,0,2,2,0,0,0,3.91,0,.34.34,0,1,1,.67,0,1.91,1.91,0,0,0,2,1.82,1.82,1.82,0,0,0,1.87-1.78v0a.34.34,0,1,1,.67,0,2,2,0,0,0,2,1.82,1.9,1.9,0,0,0,2-1.82.34.34,0,1,1,.67,0A2.57,2.57,0,0,1,49,41.85Zm2-5.7a.33.33,0,0,1-.33-.33h0a7,7,0,0,0-7-7,.34.34,0,0,1,0-.67,7.69,7.69,0,0,1,7.68,7.68A.34.34,0,0,1,51.05,36.15Z"/><g id="Clock_ticks" data-name="Clock ticks"><line class="cls-3" x1="35" y1="6.7" x2="35" y2="12.16"/><line class="cls-4" x1="35" y1="57.84" x2="35" y2="63.3"/><line class="cls-4" x1="6.7" y1="35" x2="12.16" y2="35"/><line class="cls-4" x1="57.84" y1="35" x2="63.3" y2="35"/><line class="cls-4" x1="55.01" y1="14.99" x2="51.15" y2="18.85"/><line class="cls-4" x1="18.85" y1="51.15" x2="14.99" y2="55.01"/><line class="cls-4" x1="14.99" y1="14.99" x2="18.85" y2="18.85"/><line class="cls-4" x1="51.15" y1="51.15" x2="55.01" y2="55.01"/></g></g></svg>