<svg xmlns="http://www.w3.org/2000/svg" viewBox="0 0 86 86"><defs><style>.cls-1{fill:#78a1bb;}.cls-2{fill:#c6d8d3;}</style></defs><title>wavewise-logo</title><g id="Layer_1" data-name="Layer 1"><path class="cls-1" d="M28.1,44.1c-6-3.3-12.7-5.2-21.1-3v1c8-2.1,14.4-.5,20.2,2.6-1.2.8-2.5,1.7-3.7,2.6-4.8,3.4-9.3,6.6-14.1,8.6a3.55,3.55,0,0,0,.4.9c5-2.1,9.7-5.4,14.3-8.7,1.4-1,2.7-1.9,4.1-2.8,1.2.7,2.4,1.5,3.6,2.3-2.1.9-4.3,2-6.7,3.1-4.4,2-9.3,4.3-15,6.9.2.4.4.9.6,1.3,8.1-1.9,14.4.4,20,3.8a24.8,24.8,0,0,1-14.9,3.9,10,10,0,0,0,1,1.1h.7a26.59,26.59,0,0,0,14.3-4.4c1.7,1.1,3.4,2.2,5.1,3.4a73.38,73.38,0,0,0,7.5,4.8A57.26,57.26,0,0,1,34.8,78l1.5.3A65.09,65.09,0,0,0,45.4,72a24.42,24.42,0,0,0,11.1,2.9,19.63,19.63,0,0,0,4.1-.4,26.06,26.06,0,0,0,2.8-1.7A21.76,21.76,0,0,1,46,71.3l1.8-1.5c7.2-6.1,11.9-10,22.6-3.4.2-.3.4-.5.6-.8a25.62,25.62,0,0,0-7.4-3.3,30.91,30.91,0,0,0,12-4.2c.2-.5.5-1,.7-1.6a2.09,2.09,0,0,0-.6.4C59.5,47,50.3,49.5,42.6,54.3c-1.4-1-2.8-2.1-4.2-3.1-1.6-1.2-3.1-2.4-4.7-3.5,14.9-6.8,21-8.6,30.6-5.9A63.26,63.26,0,0,1,77.5,53.1c.1-.4.2-.7.3-1.1a67.3,67.3,0,0,0-10.1-9.1c3.1,1.1,6.7,2.6,10.9,4.4,0-.3.1-.7.1-1a119.14,119.14,0,0,0-14-5.4C49.9,31.6,38.7,37,28.1,44.1ZM47.1,69,45,70.8a72.12,72.12,0,0,1-7.7-5c-1.5-1.1-3.1-2.2-4.7-3.2,1.8-1.2,3.5-2.4,5.2-3.7s3.2-2.4,4.9-3.5c4.6,3.2,9.5,6,15,6.8C54,63.2,50.9,65.9,47.1,69ZM74.8,57.5C61.4,64.9,52.3,61,43.6,55,51,50.4,59.6,48.3,74.8,57.5ZM37.9,52c1.3,1,2.6,2,3.9,2.9-1.6,1-3.1,2.2-4.6,3.3-1.8,1.3-3.6,2.7-5.5,3.9-5.4-3.3-11.4-5.8-19-4.6,4.8-2.2,9-4.1,12.8-5.9l7.2-3.3A61.49,61.49,0,0,1,37.9,52Zm-5.1-4.9c-1.2-.8-2.5-1.7-3.8-2.4,9.4-6.3,19.4-11,32.1-4.6C53,38.6,46.6,40.8,32.8,47.1Z"/></g><g id="Layer_2" data-name="Layer 2"><path class="cls-2" d="M3,43A40,40,0,1,0,43,3,40.05,40.05,0,0,0,3,43ZM43,6A37,37,0,1,1,6,43,37,37,0,0,1,43,6Z"/></g></svg>