<svg id="Wind_direction" xmlns="http://www.w3.org/2000/svg" viewBox="0 0 70 70"><defs><style>.cls-1{fill:#283044;}.cls-2{fill:#78a1bb;}</style></defs><title>Wind_direction</title><circle class="cls-1" cx="35" cy="35" r="30"/><path class="cls-2" d="M35.41,5A30,30,0,1,0,65,35.41,30,30,0,0,0,35.41,5Zm14.3,28.12c.1,0,.1.13,0,.18l-4.53,2.1c-.19.09-.24,0-.13-.15L46,33.57l-21.26-.29a.31.31,0,1,1,0-.61h0L46,33l-1-1.62c-.13-.17-.07-.24.12-.15ZM22.44,25a2.62,2.62,0,0,1,2.4-1.46h.09a2.75,2.75,0,0,1,1.2.28.36.36,0,0,1,.16.49.35.35,0,0,1-.55.11,1.38,1.38,0,0,0-1.43-.19,2.13,2.13,0,0,0,.54,4.18l16.29.22-1-1.62c-.12-.17-.06-.24.13-.15l4.62,1.93c.1,0,.1.13,0,.18l-4.53,2.09c-.18.1-.24,0-.13-.14l.94-1.68L24.85,29A2.77,2.77,0,0,1,22.44,25ZM53.31,37.61l-4.53,2.1c-.18.09-.24,0-.13-.15l.94-1.67-25-.35A3.67,3.67,0,0,0,20.78,42,3.45,3.45,0,0,0,22,43.76a4.29,4.29,0,0,0,3.69.79.35.35,0,0,1,.43.23.32.32,0,0,1-.26.39c-2.8.7-5.71-1.12-5.83-3.94a3.73,3.73,0,0,1,.76-2.39A4.79,4.79,0,0,1,24.63,37l0,0,24.9.35-1-1.63c-.12-.16-.06-.24.13-.15l4.62,1.93C53.41,37.48,53.41,37.56,53.31,37.61Z"/></svg>