<svg xmlns="http://www.w3.org/2000/svg" viewBox="0 0 70 70"><defs><style>.cls-1{fill:#c6d8d3;stroke:#c6d8d3;stroke-miterlimit:10;stroke-width:0.5px;}</style></defs><title>Wind_speed</title><g id="Wind_speed"><path class="cls-1" d="M21.85,37.19H45.29a.32.32,0,0,0,.33-.31.31.31,0,0,0-.33-.3H21.84a.32.32,0,0,0-.34.3h0A.33.33,0,0,0,21.85,37.19Z"/><path class="cls-1" d="M45.83,45.62a1.34,1.34,0,0,1-1.42-.17.37.37,0,0,0-.56.12.36.36,0,0,0,.17.48,2.82,2.82,0,0,0,1.21.28h.08a2.58,2.58,0,0,0,2.38-1.5,2.76,2.76,0,0,0-2.46-4H28.86a.31.31,0,0,0-.3.31.29.29,0,0,0,.3.3H45.24a2.09,2.09,0,0,1,.91.21A2.15,2.15,0,0,1,45.83,45.62Z"/><path class="cls-1" d="M44,24.7a.32.32,0,0,0-.26.39.37.37,0,0,0,.44.24,4.23,4.23,0,0,1,3.69.73,3.38,3.38,0,0,1,1.21,1.8,3.67,3.67,0,0,1-3.8,4.46h-25a.32.32,0,0,0-.34.3.32.32,0,0,0,.34.3h25l0,0A4.78,4.78,0,0,0,49.2,31a3.82,3.82,0,0,0,.72-2.4C49.77,25.74,46.83,24,44,24.7Z"/></g></svg>