<svg id="Wind_direction" xmlns="http://www.w3.org/2000/svg" viewBox="0 0 70 70"><defs><style>.cls-1{fill:#c6d8d3;stroke:#c6d8d3;stroke-miterlimit:10;stroke-width:0.5px;}</style></defs><title>Wind_direction</title><path class="cls-1" d="M48.68,35.5c-.18-.09-.24,0-.12.15l1,1.63-24.9-.35,0,0a4.79,4.79,0,0,0-3.88,1.87A3.73,3.73,0,0,0,20,41.23c.12,2.82,3,4.64,5.83,3.94a.32.32,0,0,0,.26-.39.35.35,0,0,0-.43-.23A4.29,4.29,0,0,1,22,43.76,3.45,3.45,0,0,1,20.78,42a3.67,3.67,0,0,1,3.86-4.41l25,.35-.94,1.67c-.11.18,0,.24.13.15l4.53-2.1c.1,0,.1-.13,0-.18Z"/><path class="cls-1" d="M45.19,35.4l4.53-2.1c.09,0,.09-.14,0-.18l-4.62-1.93c-.19-.09-.25,0-.12.15L46,33l-21.22-.29h0a.31.31,0,1,0,0,.61L46,33.57l-.93,1.68C45,35.43,45,35.49,45.19,35.4Z"/><path class="cls-1" d="M24.31,24.23a1.38,1.38,0,0,1,1.43.19.35.35,0,0,0,.55-.11.36.36,0,0,0-.16-.49,2.75,2.75,0,0,0-1.2-.28h-.09A2.62,2.62,0,0,0,22.44,25a2.77,2.77,0,0,0,2.41,4l16.33.22-.94,1.68c-.11.18-.05.24.13.14L44.9,29c.1,0,.1-.14,0-.18l-4.62-1.93c-.19-.09-.25,0-.13.15l1,1.62-16.29-.22a2.13,2.13,0,0,1-.54-4.18Z"/></svg>