<svg id="Layer_1" data-name="Layer 1" xmlns="http://www.w3.org/2000/svg" viewBox="0 0 200 200"><defs><style>.cls-1{fill:#283044;}.cls-2{fill:#78a1bb;}</style></defs><title>High_tide</title><circle class="cls-1" cx="100" cy="100" r="75"/><path class="cls-2" d="M124.19,120.22l1,0c9.15,0,16.23-9.54,21.46-18.33H102.84l1,1.44C109.41,111.72,114.72,119.7,124.19,120.22Z"/><path class="cls-2" d="M100,25a75,75,0,1,0,75,75A75,75,0,0,0,100,25Zm66.05,58.75a1.2,1.2,0,0,1,1.49.81,1.22,1.22,0,0,1-.79,1.51,2.21,2.21,0,0,1-.35,0,1.2,1.2,0,0,1-.35-2.36Zm-5,2.34a1.2,1.2,0,1,1-.35,1.66A1.2,1.2,0,0,1,161.09,86.09Zm-4.18,3.43a1.21,1.21,0,0,1,1.69,1.73h0a1.21,1.21,0,0,1-1.68-1.73Zm-3.54,3.9a1.21,1.21,0,1,1,1.88,1.51,1.19,1.19,0,0,1-.94.44,1.23,1.23,0,0,1-.76-.26A1.19,1.19,0,0,1,153.37,93.42Zm-3.14,4.18a1.2,1.2,0,1,1,1,1.9,1.13,1.13,0,0,1-.7-.23A1.19,1.19,0,0,1,150.23,97.6ZM76.06,75.7a8.47,8.47,0,1,1-8.47,8.47A8.48,8.48,0,0,1,76.06,75.7ZM31,122.44A1.21,1.21,0,0,1,29,121.6a1.22,1.22,0,0,1,.35-.86,1.25,1.25,0,0,1,1.71,0,1.21,1.21,0,0,1,0,1.7Zm4.59-.43a1.45,1.45,0,0,1-.35,0,1.16,1.16,0,1,1,.35,0Zm4.95-2.34a1.25,1.25,0,0,1-.65.19,1.2,1.2,0,0,1-.67-2.2,1.23,1.23,0,0,1,1.68.35A1.2,1.2,0,0,1,40.58,119.67Zm4.69-3.38a1.19,1.19,0,0,1-.84.33,1.22,1.22,0,0,1-.87-.36,1.2,1.2,0,0,1,0-1.71h0a1.21,1.21,0,0,1,1.69,1.73Zm3-4a1.15,1.15,0,0,1-.94.44,1.13,1.13,0,0,1-.74-.26,1.2,1.2,0,1,1,1.68-.18Zm3.15-4.18a1.22,1.22,0,0,1-1,.51,1.25,1.25,0,0,1-.69-.22,1.2,1.2,0,1,1,1.68-.29Zm2.81-4.08a1.2,1.2,0,0,1-1.69,0,1.2,1.2,0,0,1-.36-.86,1.17,1.17,0,0,1,.36-.84,1.22,1.22,0,0,1,1.69,0,1.22,1.22,0,0,1,0,1.71Zm116.66-2.22H150.63a1.72,1.72,0,0,1-.21.6c-5.48,9.41-13,20.15-23.47,21.25v.09l-1.75.06c-12,0-18.23-9.41-24.3-18.52-.78-1.18-1.57-2.34-2.35-3.48H28.43v-1.52H53.2c3.25-4.73,7.06-9.73,12.25-12.88A10.77,10.77,0,0,0,67,90.76c-3.47,2.22-6.41,5.58-9.32,9.58H97.49C94.4,96,91.14,92.2,87,90a11.21,11.21,0,0,0,1.21-3.43c5.7,2.9,9.82,8.22,13.63,13.81h69.1Zm.57-16.49a1.15,1.15,0,0,1-.84-.35,1.18,1.18,0,0,1,0-1.7,1.19,1.19,0,0,1,2,.84,1.18,1.18,0,0,1-1.2,1.21Z"/></svg>