<svg xmlns="http://www.w3.org/2000/svg" viewBox="0 0 70 70"><defs><style>.cls-1{fill:#283044;}.cls-2{fill:#78a1bb;}</style></defs><title>High_tide</title><g id="High_tide"><circle class="cls-1" cx="35" cy="35" r="30"/><path class="cls-2" d="M44.68,43.09h.4c3.66,0,6.49-3.82,8.58-7.34H36.14c.12.2.25.39.38.58C38.77,39.69,40.89,42.88,44.68,43.09Z"/><path class="cls-2" d="M35,5A30,30,0,1,0,65,35,30,30,0,0,0,35,5ZM61.42,28.5a.48.48,0,0,1,.6.32.5.5,0,0,1-.32.61l-.14,0a.49.49,0,0,1-.14-.95Zm-2,.94a.46.46,0,0,1,.66.14.48.48,0,0,1-.14.66.5.5,0,0,1-.26.08.47.47,0,0,1-.4-.22A.46.46,0,0,1,59.44,29.44Zm-1.68,1.37a.49.49,0,0,1,.68,0,.48.48,0,0,1,0,.68h0a.47.47,0,0,1-.33.14.46.46,0,0,1-.34-.15A.48.48,0,0,1,57.76,30.81Zm-1.41,1.56a.48.48,0,1,1,.37.78.45.45,0,0,1-.3-.11A.47.47,0,0,1,56.35,32.37ZM55.09,34a.49.49,0,0,1,.68-.12.5.5,0,0,1,.11.68.47.47,0,0,1-.39.2.47.47,0,0,1-.28-.09A.48.48,0,0,1,55.09,34ZM25.42,25.28A3.39,3.39,0,1,1,22,28.67,3.39,3.39,0,0,1,25.42,25.28ZM7.42,44a.52.52,0,0,1-.35.14A.49.49,0,0,1,6.73,44a.54.54,0,0,1-.14-.34.49.49,0,0,1,1,0A.54.54,0,0,1,7.42,44Zm1.83-.18a.36.36,0,0,1-.14,0,.47.47,0,0,1-.46-.34.48.48,0,0,1,.32-.6.48.48,0,0,1,.6.32A.47.47,0,0,1,9.25,43.8Zm2-.93A.5.5,0,0,1,11,43a.48.48,0,0,1-.26-.89.48.48,0,0,1,.52.81Zm1.88-1.36a.47.47,0,0,1-.34.14.54.54,0,0,1-.35-.14.5.5,0,0,1,0-.69h0a.48.48,0,0,1,.68.68Zm1.21-1.57a.46.46,0,0,1-.38.17.48.48,0,1,1,.38-.17Zm1.26-1.68a.52.52,0,0,1-.4.21.44.44,0,0,1-.27-.09.47.47,0,0,1-.12-.67.48.48,0,1,1,.79.55Zm1.12-1.63A.48.48,0,0,1,16,36a.5.5,0,0,1,.68,0,.48.48,0,0,1,.14.34A.49.49,0,0,1,16.7,36.63Zm46.67-.89H55.25a.62.62,0,0,1-.08.24C53,39.75,50,44,45.78,44.48v0l-.7,0c-4.79,0-7.29-3.77-9.72-7.41-.31-.48-.63-.94-.94-1.4h-28v-.6h9.91A17,17,0,0,1,21.18,30a4.29,4.29,0,0,0,.6,1.32,14.7,14.7,0,0,0-3.72,3.84H34A13.13,13.13,0,0,0,29.79,31a4.55,4.55,0,0,0,.48-1.37c2.28,1.16,3.93,3.29,5.45,5.53H63.37Zm.22-6.59a.45.45,0,0,1-.33-.14.45.45,0,0,1-.15-.34.43.43,0,0,1,.15-.34.49.49,0,0,1,.67,0,.46.46,0,0,1,.14.35.44.44,0,0,1-.14.34A.48.48,0,0,1,63.59,29.15Z"/></g></svg>