<svg xmlns="http://www.w3.org/2000/svg" viewBox="0 0 70 70"><defs><style>.cls-1{fill:#283044;}.cls-2{fill:#78a1bb;}</style></defs><title>Low_tide</title><g id="Low_tide"><circle class="cls-1" cx="35" cy="35" r="30"/><path class="cls-2" d="M25.32,26.91h-.4c-3.66,0-6.49,3.82-8.58,7.34H33.86c-.12-.2-.25-.39-.38-.58C31.23,30.31,29.11,27.12,25.32,26.91Z"/><path class="cls-2" d="M35,5A30,30,0,1,0,65,35,30,30,0,0,0,35,5ZM62.58,26a.52.52,0,0,1,.35-.14.49.49,0,0,1,.34.14.54.54,0,0,1,.14.34.49.49,0,0,1-1,0A.54.54,0,0,1,62.58,26Zm-1.83.18a.36.36,0,0,1,.14,0,.47.47,0,0,1,.46.34.48.48,0,0,1-.32.6.48.48,0,0,1-.6-.32A.47.47,0,0,1,60.75,26.2Zm-2,.93a.5.5,0,0,1,.26-.08.48.48,0,0,1,.26.89.48.48,0,0,1-.52-.81Zm-1.88,1.36a.47.47,0,0,1,.34-.14.54.54,0,0,1,.35.14.5.5,0,0,1,0,.69h0a.48.48,0,0,1-.68-.68Zm-1.21,1.57a.46.46,0,0,1,.38-.17.48.48,0,1,1-.38.17Zm-1.26,1.68a.52.52,0,0,1,.4-.21.44.44,0,0,1,.27.09.47.47,0,0,1,.12.67.48.48,0,1,1-.79-.55ZM53.3,33.37a.48.48,0,0,1,.68.68.5.5,0,0,1-.68,0,.48.48,0,0,1-.14-.34A.49.49,0,0,1,53.3,33.37ZM6.74,41.67a.49.49,0,0,1-.67,0,.46.46,0,0,1-.14-.35A.44.44,0,0,1,6.07,41a.48.48,0,0,1,.34-.14.45.45,0,0,1,.33.14.45.45,0,0,1,.15.34A.43.43,0,0,1,6.74,41.67Zm1.84-.17a.48.48,0,0,1-.6-.32.5.5,0,0,1,.32-.61l.14,0a.49.49,0,0,1,.14,1Zm2-.94a.46.46,0,0,1-.66-.14.48.48,0,0,1,.14-.66.5.5,0,0,1,.26-.08.47.47,0,0,1,.4.22A.46.46,0,0,1,10.56,40.56Zm1.68-1.37a.49.49,0,0,1-.68,0,.48.48,0,0,1,0-.68h0a.47.47,0,0,1,.33-.14.46.46,0,0,1,.34.15A.48.48,0,0,1,12.24,39.19Zm1.41-1.56a.48.48,0,1,1-.37-.78.45.45,0,0,1,.3.11A.47.47,0,0,1,13.65,37.63ZM14.91,36a.49.49,0,0,1-.68.12.5.5,0,0,1-.11-.68.47.47,0,0,1,.39-.2.47.47,0,0,1,.28.09A.48.48,0,0,1,14.91,36Zm29.67,8.76A3.39,3.39,0,1,1,48,41.33,3.39,3.39,0,0,1,44.58,44.72Zm9.14-9.86A17,17,0,0,1,48.82,40a4.29,4.29,0,0,0-.6-1.32,14.7,14.7,0,0,0,3.72-3.84H36A13.13,13.13,0,0,0,40.21,39a4.55,4.55,0,0,0-.48,1.37c-2.28-1.16-3.93-3.29-5.45-5.53H6.63v-.6h8.12a.62.62,0,0,1,.08-.24C17,30.25,20,26,24.22,25.52v0l.7,0c4.79,0,7.29,3.77,9.72,7.41.31.48.63.94.94,1.4H63.63v.6Z"/></g></svg>