<svg id="Layer_1" data-name="Layer 1" xmlns="http://www.w3.org/2000/svg" viewBox="0 0 200 200"><defs><style>.cls-1{fill:#283044;}.cls-2{fill:#78a1bb;}</style></defs><title>Low_tide</title><circle class="cls-1" cx="100" cy="100" r="75"/><path class="cls-2" d="M75.81,79.78l-1,0c-9.15,0-16.23,9.54-21.46,18.33H97.16l-1-1.44C90.59,88.28,85.28,80.3,75.81,79.78Z"/><path class="cls-2" d="M100,25a75,75,0,1,0,75,75A75,75,0,0,0,100,25Zm69,52.56a1.21,1.21,0,0,1,2.06.84,1.22,1.22,0,0,1-.35.86,1.25,1.25,0,0,1-1.71,0,1.21,1.21,0,0,1,0-1.7Zm-4.59.43a1.45,1.45,0,0,1,.35,0,1.16,1.16,0,1,1-.35,0Zm-5,2.34a1.25,1.25,0,0,1,.65-.19,1.2,1.2,0,0,1,.67,2.2,1.23,1.23,0,0,1-1.68-.35A1.2,1.2,0,0,1,159.42,80.33Zm-4.69,3.38a1.19,1.19,0,0,1,.84-.33,1.22,1.22,0,0,1,.87.36,1.2,1.2,0,0,1,0,1.71h0a1.21,1.21,0,0,1-1.69-1.73Zm-3,4a1.15,1.15,0,0,1,.94-.44,1.13,1.13,0,0,1,.74.26,1.2,1.2,0,1,1-1.68.18Zm-3.15,4.18a1.22,1.22,0,0,1,1-.51,1.25,1.25,0,0,1,.69.22,1.2,1.2,0,1,1-1.68.29Zm-2.81,4.08a1.2,1.2,0,0,1,1.69,0,1.2,1.2,0,0,1,.36.86,1.17,1.17,0,0,1-.36.84,1.22,1.22,0,0,1-1.69,0,1.22,1.22,0,0,1,0-1.71ZM29.36,116.68a1.19,1.19,0,0,1-2-.84,1.18,1.18,0,0,1,1.2-1.21,1.15,1.15,0,0,1,.84.35,1.18,1.18,0,0,1,0,1.7Zm4.59-.43a1.2,1.2,0,0,1-1.49-.81,1.22,1.22,0,0,1,.79-1.51,2.21,2.21,0,0,1,.35,0,1.2,1.2,0,0,1,.35,2.36Zm5-2.34a1.2,1.2,0,1,1,.35-1.66A1.2,1.2,0,0,1,38.91,113.91Zm4.18-3.43a1.21,1.21,0,0,1-1.69-1.73h0a1.21,1.21,0,0,1,1.68,1.73Zm3.54-3.9a1.21,1.21,0,1,1-1.88-1.51,1.19,1.19,0,0,1,.94-.44,1.23,1.23,0,0,1,.76.26A1.19,1.19,0,0,1,46.63,106.58Zm3.14-4.18a1.2,1.2,0,1,1-1-1.9,1.13,1.13,0,0,1,.7.23A1.19,1.19,0,0,1,49.77,102.4Zm74.17,21.9a8.47,8.47,0,1,1,8.47-8.47A8.48,8.48,0,0,1,123.94,124.3ZM146.8,99.66c-3.25,4.73-7.06,9.73-12.25,12.88a10.77,10.77,0,0,0-1.51-3.3c3.47-2.22,6.41-5.58,9.32-9.58H102.51C105.6,104,108.86,107.8,113,110a11.21,11.21,0,0,0-1.21,3.43c-5.7-2.9-9.82-8.22-13.63-13.81H29.09V98.14H49.37a1.72,1.72,0,0,1,.21-.6c5.48-9.42,13-20.15,23.47-21.25V76.2l1.75-.06c12,0,18.23,9.41,24.3,18.52.78,1.18,1.57,2.34,2.35,3.48h70.12v1.52Z"/></svg>