<svg id="Layer_1" data-name="Layer 1" xmlns="http://www.w3.org/2000/svg" viewBox="0 0 200 200"><defs><style>.cls-1{fill:#283044;}.cls-2{fill:#78a1bb;}</style></defs><title>North</title><circle class="cls-1" cx="100" cy="100" r="74.54"/><path class="cls-2" d="M139.64,124.16a3,3,0,0,1-1.81.58,3.09,3.09,0,0,1-2.54-1.31L99.88,73.86l-39,49.68a3.13,3.13,0,1,1-4.92-3.86L97.54,66.73a3.3,3.3,0,0,1,2.53-1.2,3.14,3.14,0,0,1,2.47,1.31l37.83,53a3.12,3.12,0,0,1-.73,4.36M100,25a75,75,0,1,0,75,75,75.09,75.09,0,0,0-75-75"/></svg>