<svg id="Layer_1" data-name="Layer 1" xmlns="http://www.w3.org/2000/svg" viewBox="0 0 200 200"><defs><style>.cls-1{fill:#283044;}.cls-2{fill:#78a1bb;}</style></defs><title>South</title><circle class="cls-1" cx="100" cy="100" r="74.54"/><path class="cls-2" d="M144.07,81.16l-41.61,53a3.13,3.13,0,0,1-2.46,1.2h-.07A3.12,3.12,0,0,1,97.46,134L59.7,81.15a3.22,3.22,0,0,1-.08-3.75,3.14,3.14,0,0,1,5.09,0L100.12,127l39-49.68a3.12,3.12,0,1,1,4.91,3.86M100,25a75,75,0,1,0,75,75,75.08,75.08,0,0,0-75-75"/></svg>