<svg xmlns="http://www.w3.org/2000/svg" viewBox="0 0 70 70"><defs><style>.cls-1{fill:#78a1bb;}.cls-2{fill:#283044;}</style></defs><title>Swell_height</title><g id="Swell_height"><circle class="cls-1" cx="35" cy="35" r="30"/><g id="_Group_" data-name="&lt;Group&gt;"><path class="cls-2" d="M27.09,42.22a2.14,2.14,0,0,1-2.19,2.05h0a2.09,2.09,0,0,1-2.09-2.05.38.38,0,0,0-.75,0,2.19,2.19,0,0,1-2.24,2.05h-.06a2.12,2.12,0,0,1-2.12-2.05.38.38,0,0,0-.75,0A2.88,2.88,0,0,0,19.78,45a3.05,3.05,0,0,0,2.61-1.46A2.87,2.87,0,0,0,24.92,45a3,3,0,0,0,2.56-1.47,3,3,0,0,0,5.13,0,3,3,0,0,0,5.14,0,3,3,0,0,0,1,1.06,3,3,0,0,0,4.08-1.06A3,3,0,0,0,45.45,45a2.82,2.82,0,0,0,2.48-1.47A3.13,3.13,0,0,0,50.57,45a2.9,2.9,0,0,0,2.93-2.82.38.38,0,0,0-.37-.37.38.38,0,0,0-.38.37,2.13,2.13,0,0,1-2.18,2.05,2.23,2.23,0,0,1-2.3-2.05.38.38,0,0,0-.37-.37.38.38,0,0,0-.38.37v.05a2,2,0,0,1-2.09,2,2.14,2.14,0,0,1-2.19-2.05.38.38,0,0,0-.75,0,2.19,2.19,0,0,1-4.38,0,.38.38,0,0,0-.75,0,2.19,2.19,0,0,1-4.38,0,.38.38,0,0,0-.38-.37.38.38,0,0,0-.37.37,2.2,2.2,0,0,1-4.39,0,.38.38,0,0,0-.75,0Z"/><path class="cls-2" d="M53,38.75a.37.37,0,0,0,.36-.37A14,14,0,0,0,49.84,29a11.17,11.17,0,0,0-8.36-3.9.38.38,0,1,0,0,.75,10.47,10.47,0,0,1,7.83,3.67,13.32,13.32,0,0,1,3.25,8.85.38.38,0,0,0,.38.37Z"/><path class="cls-2" d="M45.53,38.27A13.31,13.31,0,0,0,23.3,28.35a.38.38,0,0,0,0,.55.38.38,0,0,0,.55,0,12.56,12.56,0,0,1,21,9.35.38.38,0,1,0,.75,0Z"/><path class="cls-2" d="M41.76,38.07h0a6.69,6.69,0,0,0-8.82-6.33,6.34,6.34,0,0,0-3.27,2.41,6.81,6.81,0,0,0-1.24,3.92.37.37,0,0,0,.38.37.38.38,0,0,0,.37-.37,5.92,5.92,0,0,1,11.83,0,.37.37,0,0,0,.37.37A.38.38,0,0,0,41.76,38.07Z"/></g></g></svg>