<svg id="Layer_1" data-name="Layer 1" xmlns="http://www.w3.org/2000/svg" viewBox="0 0 200 200"><defs><style>.cls-1,.cls-3,.cls-4{fill:#283044;}.cls-2{fill:#78a1bb;}.cls-3,.cls-4{stroke:#283044;stroke-miterlimit:10;}.cls-3{stroke-width:1.24px;}.cls-4{stroke-width:1.24px;}</style></defs><title>Swell_period</title><circle class="cls-1" cx="100" cy="100" r="75"/><path class="cls-2" d="M100,25a75,75,0,1,0,75,75,75,75,0,0,0-75-75ZM90.35,87.83a19.19,19.19,0,0,1,32,14.28.84.84,0,0,1-1.68,0h0a17.5,17.5,0,0,0-29.2-13A.85.85,0,0,1,90.26,89a.84.84,0,0,1,.06-1.19h0ZM116.21,102a.83.83,0,0,1-1.65,0h0a6.63,6.63,0,0,0-3.87-6.17A6.84,6.84,0,0,0,101,102h0a.83.83,0,0,1-1.65,0h0A7.92,7.92,0,0,1,104,94.69,8.53,8.53,0,0,1,116.21,102Zm18.88,15.16a7,7,0,0,1-5.89-3.27,6.25,6.25,0,0,1-5.58,3.27,6.59,6.59,0,0,1-5.72-3.27,6.66,6.66,0,0,1-9.11,2.35,6.56,6.56,0,0,1-2.36-2.35,6.65,6.65,0,0,1-9.11,2.35A6.72,6.72,0,0,1,95,113.86a6.65,6.65,0,0,1-11.46,0,6.61,6.61,0,0,1-5.73,3.27,6.39,6.39,0,0,1-5.65-3.26,6.73,6.73,0,0,1-5.82,3.26,6.43,6.43,0,0,1-6.57-6.29.84.84,0,0,1,1.67,0h0a4.77,4.77,0,0,0,4.89,4.57,4.88,4.88,0,0,0,5-4.57.84.84,0,0,1,1.68,0h0a4.65,4.65,0,0,0,4.75,4.57h0a4.77,4.77,0,0,0,4.89-4.57.84.84,0,0,1,.84-.83.83.83,0,0,1,.83.83,4.91,4.91,0,0,0,9.8,0,.84.84,0,0,1,1.67,0,4.9,4.9,0,0,0,9.79,0,.84.84,0,0,1,1.68,0,4.9,4.9,0,0,0,9.79,0,.84.84,0,0,1,1.68,0,4.75,4.75,0,0,0,4.88,4.57,4.57,4.57,0,0,0,4.68-4.46v-.11a.84.84,0,0,1,.84-.83.83.83,0,0,1,.83.83,5,5,0,0,0,5.12,4.57,4.77,4.77,0,0,0,4.89-4.57.84.84,0,0,1,.84-.83.83.83,0,0,1,.83.83A6.43,6.43,0,0,1,135.09,117.13Zm5-14.25a.84.84,0,0,1-.84-.84h0a17.52,17.52,0,0,0-17.51-17.51.84.84,0,0,1,0-1.68A19.21,19.21,0,0,1,141,102,.84.84,0,0,1,140.13,102.88Z"/><line class="cls-3" x1="100" y1="29.26" x2="100" y2="42.9"/><line class="cls-4" x1="100" y1="157.1" x2="100" y2="170.74"/><line class="cls-4" x1="29.26" y1="100" x2="42.9" y2="100"/><line class="cls-4" x1="157.1" y1="100" x2="170.74" y2="100"/><line class="cls-4" x1="150.02" y1="49.98" x2="140.38" y2="59.62"/><line class="cls-4" x1="59.62" y1="140.38" x2="49.98" y2="150.02"/><line class="cls-4" x1="49.98" y1="49.98" x2="59.62" y2="59.62"/><line class="cls-4" x1="140.38" y1="140.38" x2="150.02" y2="150.02"/></svg>