<svg id="Layer_1" data-name="Layer 1" xmlns="http://www.w3.org/2000/svg" viewBox="0 0 200 200"><defs><style>.cls-1{fill:#78a1bb;}.cls-2{fill:#283044;}</style></defs><title>Swell_height</title><circle class="cls-1" cx="100" cy="100" r="75"/><g id="_Group_" data-name="&lt;Group&gt;"><path class="cls-2" d="M80.23,118.05a5.32,5.32,0,0,1-5.47,5.11h-.14a5.21,5.21,0,0,1-5.22-5.11.94.94,0,1,0-1.87,0,5.47,5.47,0,0,1-5.59,5.11h-.16a5.33,5.33,0,0,1-5.31-5.11.94.94,0,1,0-1.88,0,7.21,7.21,0,0,0,7.36,7,7.54,7.54,0,0,0,6.52-3.65,7.11,7.11,0,0,0,6.32,3.65,7.36,7.36,0,0,0,6.41-3.66,7.58,7.58,0,0,0,2.64,2.64A7.45,7.45,0,0,0,94,121.43a7.61,7.61,0,0,0,2.65,2.64,7.46,7.46,0,0,0,10.19-2.64,7.58,7.58,0,0,0,2.64,2.64,7.45,7.45,0,0,0,10.19-2.64,7.36,7.36,0,0,0,6.41,3.66,7,7,0,0,0,6.23-3.66,7.73,7.73,0,0,0,6.59,3.66,7.22,7.22,0,0,0,7.33-7,.94.94,0,1,0-1.87,0,5.32,5.32,0,0,1-5.48,5.11,5.53,5.53,0,0,1-5.72-5.11.94.94,0,0,0-1.88,0v.12a5.1,5.1,0,0,1-5.23,5,5.31,5.31,0,0,1-5.47-5.11.94.94,0,0,0-1.88,0,5.49,5.49,0,0,1-11,0,.94.94,0,1,0-1.87,0,5.49,5.49,0,0,1-11,0,.94.94,0,0,0-1.88,0,5.49,5.49,0,0,1-11,0,.94.94,0,1,0-1.87,0Z"/><path class="cls-2" d="M144.86,109.38a.93.93,0,0,0,.92-.93A35.1,35.1,0,0,0,137.11,85a28,28,0,0,0-20.92-9.74.93.93,0,0,0-.93.94.94.94,0,0,0,.93.94,26.16,26.16,0,0,1,19.59,9.17,33.24,33.24,0,0,1,8.13,22.11,1,1,0,0,0,.94.94Z"/><path class="cls-2" d="M126.32,108.18a33.28,33.28,0,0,0-55.57-24.8,1,1,0,1,0,1.33,1.43,31.39,31.39,0,0,1,52.36,23.37.94.94,0,0,0,1.88,0Z"/><path class="cls-2" d="M116.89,107.67h0A16.73,16.73,0,0,0,94.85,91.85a15.77,15.77,0,0,0-8.18,6,16.88,16.88,0,0,0-3.08,9.78.93.93,0,0,0,.93.94,1,1,0,0,0,.94-.94,14.78,14.78,0,0,1,29.56,0,.94.94,0,1,0,1.87,0Z"/></g></svg>