<svg id="Layer_1" data-name="Layer 1" xmlns="http://www.w3.org/2000/svg" viewBox="0 0 200 200"><defs><style>.cls-1{fill:#283044;}.cls-2{fill:#78a1bb;}</style></defs><title>Wind_direction</title><circle class="cls-1" cx="100" cy="100" r="75"/><path class="cls-2" d="M101,25a75,75,0,1,0,74,76A75,75,0,0,0,101,25ZM136.78,95.3c.25.11.25.32,0,.45L125.46,101c-.45.23-.59.08-.32-.37l2.34-4.19L74.34,95.7a.76.76,0,1,1,0-1.52h0l53,.73-2.49-4.06c-.3-.42-.15-.6.31-.38ZM68.61,75a6.5,6.5,0,0,1,6-3.66h.21a7,7,0,0,1,3,.72.9.9,0,1,1-1,1.49,3.41,3.41,0,0,0-3.56-.47c-5.14,2.29-4.63,8-.91,9.89a5.24,5.24,0,0,0,2.27.55l40.72.56L112.88,80c-.31-.42-.16-.59.31-.37l11.56,4.82c.25.11.25.33,0,.45l-11.33,5.24c-.45.23-.6.09-.32-.36l2.34-4.2L74.64,85A6.9,6.9,0,0,1,68.61,75Zm77.18,31.54-11.34,5.24c-.45.23-.59.09-.32-.36l2.34-4.2-62.37-.85c-6.21-.08-11.14,5.1-9.65,11a8.53,8.53,0,0,0,3,4.54,10.66,10.66,0,0,0,9.22,2,.9.9,0,0,1,1.07.6.79.79,0,0,1-.65,1c-7,1.75-14.29-2.79-14.56-9.87a9.38,9.38,0,0,1,1.88-6,11.91,11.91,0,0,1,9.72-4.66l0-.1,62.27.86-2.49-4.06c-.3-.41-.16-.59.31-.37l11.56,4.82C146,106.19,146,106.41,145.79,106.53Z"/></svg>