<svg xmlns="http://www.w3.org/2000/svg" viewBox="0 0 70 70"><defs><style>.cls-1{fill:#283044;}.cls-2{fill:#78a1bb;}</style></defs><title>Wind_speed</title><g id="Wind_speed"><circle class="cls-1" cx="35" cy="35" r="30"/><path class="cls-2" d="M35,5A30,30,0,1,0,65,35,30,30,0,0,0,35,5ZM21.5,36.88a.32.32,0,0,1,.34-.3H45.29a.31.31,0,0,1,.33.3.32.32,0,0,1-.33.31H21.85a.33.33,0,0,1-.35-.3Zm23.73,9.45A2.82,2.82,0,0,1,44,46.05a.36.36,0,0,1-.17-.48.37.37,0,0,1,.56-.12,1.34,1.34,0,0,0,1.42.17,2.15,2.15,0,0,0,.32-4,2.09,2.09,0,0,0-.91-.21H28.86a.29.29,0,0,1-.3-.3.31.31,0,0,1,.3-.31H45.23a2.76,2.76,0,0,1,2.46,4,2.58,2.58,0,0,1-2.38,1.5h-.08Zm.09-13.41h-25a.32.32,0,0,1-.34-.3.32.32,0,0,1,.34-.3h25a3.67,3.67,0,0,0,3.8-4.46,3.38,3.38,0,0,0-1.21-1.8,4.23,4.23,0,0,0-3.69-.73.37.37,0,0,1-.44-.24A.32.32,0,0,1,44,24.7c2.79-.74,5.73,1,5.88,3.87A3.82,3.82,0,0,1,49.2,31a4.78,4.78,0,0,1-3.86,1.92Z"/></g></svg>