<svg id="Layer_1" data-name="Layer 1" xmlns="http://www.w3.org/2000/svg" viewBox="0 0 200 200"><defs><style>.cls-1{fill:#283044;}.cls-2{fill:#78a1bb;}</style></defs><title>Wind_speed</title><circle class="cls-1" cx="100" cy="100" r="75"/><path class="cls-2" d="M100,25a75,75,0,1,0,75,75,75,75,0,0,0-75-75ZM66.25,104.71a.81.81,0,0,1,.84-.76h58.63a.76.76,0,1,1,0,1.52H67.12a.81.81,0,0,1-.87-.73Zm59.32,23.6a6.87,6.87,0,0,1-3-.68.9.9,0,1,1,1-1.5,3.42,3.42,0,0,0,3.57.42c5.1-2.36,4.52-8.08.77-9.9a5.24,5.24,0,0,0-2.27-.52H84.66a.76.76,0,1,1,0-1.52h40.91a6.9,6.9,0,0,1,6.16,10,6.49,6.49,0,0,1-5.95,3.73h-.21Zm.24-33.5H63.38a.76.76,0,1,1,0-1.52h62.44c6.21,0,11.07-5.26,9.5-11.14a8.51,8.51,0,0,0-3-4.5A10.66,10.66,0,0,0,123,75.82a.9.9,0,0,1-1.08-.58.81.81,0,0,1,.64-1c7-1.84,14.32,2.6,14.7,9.67a9.41,9.41,0,0,1-1.8,6,11.93,11.93,0,0,1-9.66,4.79Z"/></svg>